{
  "asset": { "version": "2.0" },
  "scene": 0,
  "scenes": [{ "nodes": [0,1,2,3,4,5,6,7,8,9,10,11,12,13,14,15,16,17,18,19,20,21,22,23,24,25,26,27,28,29,30,31,32,33,34,35,36,37,38,39,40,41,42,43,44,45,46,47,48,49,50,51,52,53,54,55,56,57,58,59,60,61,62,63,64,65,66,67,68,69,70,71,72] }],
  "nodes": [{"mesh":0},{"mesh":1},{"mesh":2},{"mesh":3},{"mesh":4},{"mesh":5},{"mesh":6},{"mesh":7},{"mesh":8},{"mesh":9},{"mesh":10},{"mesh":11},{"mesh":12},{"mesh":13},{"mesh":14},{"mesh":15},{"mesh":16},{"mesh":17},{"mesh":18},{"mesh":19},{"mesh":20},{"mesh":21},{"mesh":22},{"mesh":23},{"mesh":24},{"mesh":25},{"mesh":26},{"mesh":27},{"mesh":28},{"mesh":29},{"mesh":30},{"mesh":31},{"mesh":32},{"mesh":33},{"mesh":34},{"mesh":35},{"mesh":36},{"mesh":37},{"mesh":38},{"mesh":39},{"mesh":40},{"mesh":41},{"mesh":42},{"mesh":43},{"mesh":44},{"mesh":45},{"mesh":46},{"mesh":47},{"mesh":48},{"mesh":49},{"mesh":50},{"mesh":51},{"mesh":52},{"mesh":53},{"mesh":54},{"mesh":55},{"mesh":56},{"mesh":57},{"mesh":58},{"mesh":59},{"mesh":60},{"mesh":61},{"mesh":62},{"mesh":63},{"mesh":64},{"mesh":65},{"mesh":66},{"mesh":67},{"mesh":68},{"mesh":69},{"mesh":70},{"mesh":71},{"mesh":72}],
  "meshes": [{"primitives":[{"attributes":{"POSITION":0,"TEXCOORD_0":1},"indices":2,"material":0}]},{"primitives":[{"attributes":{"POSITION":3,"TEXCOORD_0":4},"indices":5,"material":0}]},{"primitives":[{"attributes":{"POSITION":6,"TEXCOORD_0":7},"indices":8,"material":0}]},{"primitives":[{"attributes":{"POSITION":9,"TEXCOORD_0":10},"indices":11,"material":0}]},{"primitives":[{"attributes":{"POSITION":12,"TEXCOORD_0":13},"indices":14,"material":0}]},{"primitives":[{"attributes":{"POSITION":15,"TEXCOORD_0":16},"indices":17,"material":0}]},{"primitives":[{"attributes":{"POSITION":18,"TEXCOORD_0":19},"indices":20,"material":0}]},{"primitives":[{"attributes":{"POSITION":21,"TEXCOORD_0":22},"indices":23,"material":0}]},{"primitives":[{"attributes":{"POSITION":24,"TEXCOORD_0":25},"indices":26,"material":0}]},{"primitives":[{"attributes":{"POSITION":27,"TEXCOORD_0":28},"indices":29,"material":0}]},{"primitives":[{"attributes":{"POSITION":30,"TEXCOORD_0":31},"indices":32,"material":0}]},{"primitives":[{"attributes":{"POSITION":33,"TEXCOORD_0":34},"indices":35,"material":0}]},{"primitives":[{"attributes":{"POSITION":36,"TEXCOORD_0":37},"indices":38,"material":0}]},{"primitives":[{"attributes":{"POSITION":39,"TEXCOORD_0":40},"indices":41,"material":0}]},{"primitives":[{"attributes":{"POSITION":42,"TEXCOORD_0":43},"indices":44,"material":0}]},{"primitives":[{"attributes":{"POSITION":45,"TEXCOORD_0":46},"indices":47,"material":0}]},{"primitives":[{"attributes":{"POSITION":48,"TEXCOORD_0":49},"indices":50,"material":0}]},{"primitives":[{"attributes":{"POSITION":51,"TEXCOORD_0":52},"indices":53,"material":0}]},{"primitives":[{"attributes":{"POSITION":54,"TEXCOORD_0":55},"indices":56,"material":0}]},{"primitives":[{"attributes":{"POSITION":57,"TEXCOORD_0":58},"indices":59,"material":0}]},{"primitives":[{"attributes":{"POSITION":60,"TEXCOORD_0":61},"indices":62,"material":0}]},{"primitives":[{"attributes":{"POSITION":63,"TEXCOORD_0":64},"indices":65,"material":0}]},{"primitives":[{"attributes":{"POSITION":66,"TEXCOORD_0":67},"indices":68,"material":0}]},{"primitives":[{"attributes":{"POSITION":69,"TEXCOORD_0":70},"indices":71,"material":0}]},{"primitives":[{"attributes":{"POSITION":72,"TEXCOORD_0":73},"indices":74,"material":0}]},{"primitives":[{"attributes":{"POSITION":75,"TEXCOORD_0":76},"indices":77,"material":0}]},{"primitives":[{"attributes":{"POSITION":78,"TEXCOORD_0":79},"indices":80,"material":0}]},{"primitives":[{"attributes":{"POSITION":81,"TEXCOORD_0":82},"indices":83,"material":0}]},{"primitives":[{"attributes":{"POSITION":84,"TEXCOORD_0":85},"indices":86,"material":0}]},{"primitives":[{"attributes":{"POSITION":87,"TEXCOORD_0":88},"indices":89,"material":0}]},{"primitives":[{"attributes":{"POSITION":90,"TEXCOORD_0":91},"indices":92,"material":0}]},{"primitives":[{"attributes":{"POSITION":93,"TEXCOORD_0":94},"indices":95,"material":0}]},{"primitives":[{"attributes":{"POSITION":96,"TEXCOORD_0":97},"indices":98,"material":0}]},{"primitives":[{"attributes":{"POSITION":99,"TEXCOORD_0":100},"indices":101,"material":0}]},{"primitives":[{"attributes":{"POSITION":102,"TEXCOORD_0":103},"indices":104,"material":0}]},{"primitives":[{"attributes":{"POSITION":105,"TEXCOORD_0":106},"indices":107,"material":0}]},{"primitives":[{"attributes":{"POSITION":108,"TEXCOORD_0":109},"indices":110,"material":0}]},{"primitives":[{"attributes":{"POSITION":111,"TEXCOORD_0":112},"indices":113,"material":0}]},{"primitives":[{"attributes":{"POSITION":114,"TEXCOORD_0":115},"indices":116,"material":0}]},{"primitives":[{"attributes":{"POSITION":117,"TEXCOORD_0":118},"indices":119,"material":0}]},{"primitives":[{"attributes":{"POSITION":120,"TEXCOORD_0":121},"indices":122,"material":0}]},{"primitives":[{"attributes":{"POSITION":123,"TEXCOORD_0":124},"indices":125,"material":0}]},{"primitives":[{"attributes":{"POSITION":126,"TEXCOORD_0":127},"indices":128,"material":0}]},{"primitives":[{"attributes":{"POSITION":129,"TEXCOORD_0":130},"indices":131,"material":0}]},{"primitives":[{"attributes":{"POSITION":132,"TEXCOORD_0":133},"indices":134,"material":0}]},{"primitives":[{"attributes":{"POSITION":135,"TEXCOORD_0":136},"indices":137,"material":0}]},{"primitives":[{"attributes":{"POSITION":138,"TEXCOORD_0":139},"indices":140,"material":0}]},{"primitives":[{"attributes":{"POSITION":141,"TEXCOORD_0":142},"indices":143,"material":0}]},{"primitives":[{"attributes":{"POSITION":144,"TEXCOORD_0":145},"indices":146,"material":0}]},{"primitives":[{"attributes":{"POSITION":147,"TEXCOORD_0":148},"indices":149,"material":0}]},{"primitives":[{"attributes":{"POSITION":150,"TEXCOORD_0":151},"indices":152,"material":0}]},{"primitives":[{"attributes":{"POSITION":153,"TEXCOORD_0":154},"indices":155,"material":0}]},{"primitives":[{"attributes":{"POSITION":156,"TEXCOORD_0":157},"indices":158,"material":0}]},{"primitives":[{"attributes":{"POSITION":159,"TEXCOORD_0":160},"indices":161,"material":0}]},{"primitives":[{"attributes":{"POSITION":162,"TEXCOORD_0":163},"indices":164,"material":0}]},{"primitives":[{"attributes":{"POSITION":165,"TEXCOORD_0":166},"indices":167,"material":0}]},{"primitives":[{"attributes":{"POSITION":168,"TEXCOORD_0":169},"indices":170,"material":0}]},{"primitives":[{"attributes":{"POSITION":171,"TEXCOORD_0":172},"indices":173,"material":0}]},{"primitives":[{"attributes":{"POSITION":174,"TEXCOORD_0":175},"indices":176,"material":0}]},{"primitives":[{"attributes":{"POSITION":177,"TEXCOORD_0":178},"indices":179,"material":0}]},{"primitives":[{"attributes":{"POSITION":180,"TEXCOORD_0":181},"indices":182,"material":0}]},{"primitives":[{"attributes":{"POSITION":183,"TEXCOORD_0":184},"indices":185,"material":0}]},{"primitives":[{"attributes":{"POSITION":186,"TEXCOORD_0":187},"indices":188,"material":0}]},{"primitives":[{"attributes":{"POSITION":189,"TEXCOORD_0":190},"indices":191,"material":0}]},{"primitives":[{"attributes":{"POSITION":192,"TEXCOORD_0":193},"indices":194,"material":0}]},{"primitives":[{"attributes":{"POSITION":195,"TEXCOORD_0":196},"indices":197,"material":0}]},{"primitives":[{"attributes":{"POSITION":198,"TEXCOORD_0":199},"indices":200,"material":0}]},{"primitives":[{"attributes":{"POSITION":201,"TEXCOORD_0":202},"indices":203,"material":0}]},{"primitives":[{"attributes":{"POSITION":204,"TEXCOORD_0":205},"indices":206,"material":0}]},{"primitives":[{"attributes":{"POSITION":207,"TEXCOORD_0":208},"indices":209,"material":0}]},{"primitives":[{"attributes":{"POSITION":210,"TEXCOORD_0":211},"indices":212,"material":0}]},{"primitives":[{"attributes":{"POSITION":213,"TEXCOORD_0":214},"indices":215,"material":0}]},{"primitives":[{"attributes":{"POSITION":216,"TEXCOORD_0":217},"indices":218,"material":0}]}],
  "materials": [{
    "pbrMetallicRoughness": {
      "baseColorTexture": { "index": 0 },
      "metallicFactor": 0.0,
      "roughnessFactor": 1.0
    }
  }],
  "textures": [{ "source": 0 }],
  "images": [{ "uri": "beach-house.png" }],
  "accessors": [{"bufferView":0,"byteOffset":0,"componentType":5126,"count":36,"type":"VEC3","min":[-1.32,0.59,-1.57],"max":[0.99,2.57,0.99]},{"bufferView":1,"byteOffset":0,"componentType":5126,"count":36,"type":"VEC2"},{"bufferView":2,"byteOffset":0,"componentType":5123,"count":36,"type":"SCALAR"},{"bufferView":3,"byteOffset":0,"componentType":5126,"count":36,"type":"VEC3","min":[-2.5796,2.65,-2.8288],"max":[2.3708,3.2324,2.3296]},{"bufferView":4,"byteOffset":0,"componentType":5126,"count":36,"type":"VEC2"},{"bufferView":5,"byteOffset":0,"componentType":5123,"count":36,"type":"SCALAR"},{"bufferView":6,"byteOffset":0,"componentType":5126,"count":36,"type":"VEC3","min":[1,0.5,1],"max":[1.5,2.5,1.5]},{"bufferView":7,"byteOffset":0,"componentType":5126,"count":36,"type":"VEC2"},{"bufferView":8,"byteOffset":0,"componentType":5123,"count":36,"type":"SCALAR"},{"bufferView":9,"byteOffset":0,"componentType":5126,"count":36,"type":"VEC3","min":[-1.75,0.5,1],"max":[-1.25,2.5,1.5]},{"bufferView":10,"byteOffset":0,"componentType":5126,"count":36,"type":"VEC2"},{"bufferView":11,"byteOffset":0,"componentType":5123,"count":36,"type":"SCALAR"},{"bufferView":12,"byteOffset":0,"componentType":5126,"count":36,"type":"VEC3","min":[-1.75,0.5,-2],"max":[-1.25,2.5,-1.5]},{"bufferView":13,"byteOffset":0,"componentType":5126,"count":36,"type":"VEC2"},{"bufferView":14,"byteOffset":0,"componentType":5123,"count":36,"type":"SCALAR"},{"bufferView":15,"byteOffset":0,"componentType":5126,"count":36,"type":"VEC3","min":[1,0.5,-2],"max":[1.5,2.5,-1.5]},{"bufferView":16,"byteOffset":0,"componentType":5126,"count":36,"type":"VEC2"},{"bufferView":17,"byteOffset":0,"componentType":5123,"count":36,"type":"SCALAR"},{"bufferView":18,"byteOffset":0,"componentType":5126,"count":36,"type":"VEC3","min":[-4.67,-0.75,-4.76],"max":[4.16,-0.02,4.17]},{"bufferView":19,"byteOffset":0,"componentType":5126,"count":36,"type":"VEC2"},{"bufferView":20,"byteOffset":0,"componentType":5123,"count":36,"type":"SCALAR"},{"bufferView":21,"byteOffset":0,"componentType":5126,"count":36,"type":"VEC3","min":[-4.43301,-3.875,-4.25],"max":[3.88157,-0.316987,-3.75]},{"bufferView":22,"byteOffset":0,"componentType":5126,"count":36,"type":"VEC2"},{"bufferView":23,"byteOffset":0,"componentType":5123,"count":36,"type":"SCALAR"},{"bufferView":24,"byteOffset":0,"componentType":5126,"count":36,"type":"VEC3","min":[-4.43301,-3.5,-4.5],"max":[3.88157,-0.691987,-4]},{"bufferView":25,"byteOffset":0,"componentType":5126,"count":36,"type":"VEC2"},{"bufferView":26,"byteOffset":0,"componentType":5123,"count":36,"type":"SCALAR"},{"bufferView":27,"byteOffset":0,"componentType":5126,"count":36,"type":"VEC3","min":[-4.43301,-3.5,3.5],"max":[3.88157,-0.691987,4]},{"bufferView":28,"byteOffset":0,"componentType":5126,"count":36,"type":"VEC2"},{"bufferView":29,"byteOffset":0,"componentType":5123,"count":36,"type":"SCALAR"},{"bufferView":30,"byteOffset":0,"componentType":5126,"count":36,"type":"VEC3","min":[-4.43301,-3.875,3.5],"max":[3.88157,-0.316987,4]},{"bufferView":31,"byteOffset":0,"componentType":5126,"count":36,"type":"VEC2"},{"bufferView":32,"byteOffset":0,"componentType":5123,"count":36,"type":"SCALAR"},{"bufferView":33,"byteOffset":0,"componentType":5126,"count":36,"type":"VEC3","min":[-4.5,-3.75,-3.68301],"max":[-4,-0.691987,4.13157]},{"bufferView":34,"byteOffset":0,"componentType":5126,"count":36,"type":"VEC2"},{"bufferView":35,"byteOffset":0,"componentType":5123,"count":36,"type":"SCALAR"},{"bufferView":36,"byteOffset":0,"componentType":5126,"count":36,"type":"VEC3","min":[-4.5,-3.875,-4.18301],"max":[-4,-0.316987,3.63157]},{"bufferView":37,"byteOffset":0,"componentType":5126,"count":36,"type":"VEC2"},{"bufferView":38,"byteOffset":0,"componentType":5123,"count":36,"type":"SCALAR"},{"bufferView":39,"byteOffset":0,"componentType":5126,"count":36,"type":"VEC3","min":[3.5,-4,-4.18301],"max":[4,-0.941987,3.63157]},{"bufferView":40,"byteOffset":0,"componentType":5126,"count":36,"type":"VEC2"},{"bufferView":41,"byteOffset":0,"componentType":5123,"count":36,"type":"SCALAR"},{"bufferView":42,"byteOffset":0,"componentType":5126,"count":36,"type":"VEC3","min":[3.5,-3.875,-4.18301],"max":[4,-0.316987,3.63157]},{"bufferView":43,"byteOffset":0,"componentType":5126,"count":36,"type":"VEC2"},{"bufferView":44,"byteOffset":0,"componentType":5123,"count":36,"type":"SCALAR"},{"bufferView":45,"byteOffset":0,"componentType":5126,"count":36,"type":"VEC3","min":[-4.5,-4,-4.25],"max":[-4,-0.75,-3.75]},{"bufferView":46,"byteOffset":0,"componentType":5126,"count":36,"type":"VEC2"},{"bufferView":47,"byteOffset":0,"componentType":5123,"count":36,"type":"SCALAR"},{"bufferView":48,"byteOffset":0,"componentType":5126,"count":36,"type":"VEC3","min":[-4.5,-4,3.5],"max":[-4,-0.75,4]},{"bufferView":49,"byteOffset":0,"componentType":5126,"count":36,"type":"VEC2"},{"bufferView":50,"byteOffset":0,"componentType":5123,"count":36,"type":"SCALAR"},{"bufferView":51,"byteOffset":0,"componentType":5126,"count":36,"type":"VEC3","min":[3.75,-4,-4.25],"max":[4.25,-0.75,-3.75]},{"bufferView":52,"byteOffset":0,"componentType":5126,"count":36,"type":"VEC2"},{"bufferView":53,"byteOffset":0,"componentType":5123,"count":36,"type":"SCALAR"},{"bufferView":54,"byteOffset":0,"componentType":5126,"count":36,"type":"VEC3","min":[3.5,-2,-4.25],"max":[4,1.25,-3.75]},{"bufferView":55,"byteOffset":0,"componentType":5126,"count":36,"type":"VEC2"},{"bufferView":56,"byteOffset":0,"componentType":5123,"count":36,"type":"SCALAR"},{"bufferView":57,"byteOffset":0,"componentType":5126,"count":36,"type":"VEC3","min":[3.75,-4,3.5],"max":[4.25,-0.75,4]},{"bufferView":58,"byteOffset":0,"componentType":5126,"count":36,"type":"VEC2"},{"bufferView":59,"byteOffset":0,"componentType":5123,"count":36,"type":"SCALAR"},{"bufferView":60,"byteOffset":0,"componentType":5126,"count":36,"type":"VEC3","min":[-4.68301,0.875,-4.75],"max":[0.38157,1.43301,-4.25]},{"bufferView":61,"byteOffset":0,"componentType":5126,"count":36,"type":"VEC2"},{"bufferView":62,"byteOffset":0,"componentType":5123,"count":36,"type":"SCALAR"},{"bufferView":63,"byteOffset":0,"componentType":5126,"count":36,"type":"VEC3","min":[-4.75,0.875,-4.68301],"max":[-4.25,1.43301,4.13157]},{"bufferView":64,"byteOffset":0,"componentType":5126,"count":36,"type":"VEC2"},{"bufferView":65,"byteOffset":0,"componentType":5123,"count":36,"type":"SCALAR"},{"bufferView":66,"byteOffset":0,"componentType":5126,"count":36,"type":"VEC3","min":[3.75,0.875,-4.68301],"max":[4.25,1.43301,4.13157]},{"bufferView":67,"byteOffset":0,"componentType":5126,"count":36,"type":"VEC2"},{"bufferView":68,"byteOffset":0,"componentType":5123,"count":36,"type":"SCALAR"},{"bufferView":69,"byteOffset":0,"componentType":5126,"count":36,"type":"VEC3","min":[-4.68301,0.625,3.75],"max":[4.13157,1.18301,4.25]},{"bufferView":70,"byteOffset":0,"componentType":5126,"count":36,"type":"VEC2"},{"bufferView":71,"byteOffset":0,"componentType":5123,"count":36,"type":"SCALAR"},{"bufferView":72,"byteOffset":0,"componentType":5126,"count":36,"type":"VEC3","min":[-4.5,0,3],"max":[-4.25,1,3.25]},{"bufferView":73,"byteOffset":0,"componentType":5126,"count":36,"type":"VEC2"},{"bufferView":74,"byteOffset":0,"componentType":5123,"count":36,"type":"SCALAR"},{"bufferView":75,"byteOffset":0,"componentType":5126,"count":36,"type":"VEC3","min":[-3.75,0,3.75],"max":[-3.5,1,4]},{"bufferView":76,"byteOffset":0,"componentType":5126,"count":36,"type":"VEC2"},{"bufferView":77,"byteOffset":0,"componentType":5123,"count":36,"type":"SCALAR"},{"bufferView":78,"byteOffset":0,"componentType":5126,"count":36,"type":"VEC3","min":[-3,0,3.75],"max":[-2.75,1,4]},{"bufferView":79,"byteOffset":0,"componentType":5126,"count":36,"type":"VEC2"},{"bufferView":80,"byteOffset":0,"componentType":5123,"count":36,"type":"SCALAR"},{"bufferView":81,"byteOffset":0,"componentType":5126,"count":36,"type":"VEC3","min":[-2.25,0,3.75],"max":[-2,1,4]},{"bufferView":82,"byteOffset":0,"componentType":5126,"count":36,"type":"VEC2"},{"bufferView":83,"byteOffset":0,"componentType":5123,"count":36,"type":"SCALAR"},{"bufferView":84,"byteOffset":0,"componentType":5126,"count":36,"type":"VEC3","min":[-1.5,0,3.75],"max":[-1.25,1,4]},{"bufferView":85,"byteOffset":0,"componentType":5126,"count":36,"type":"VEC2"},{"bufferView":86,"byteOffset":0,"componentType":5123,"count":36,"type":"SCALAR"},{"bufferView":87,"byteOffset":0,"componentType":5126,"count":36,"type":"VEC3","min":[-0.75,0,3.75],"max":[-0.5,1,4]},{"bufferView":88,"byteOffset":0,"componentType":5126,"count":36,"type":"VEC2"},{"bufferView":89,"byteOffset":0,"componentType":5123,"count":36,"type":"SCALAR"},{"bufferView":90,"byteOffset":0,"componentType":5126,"count":36,"type":"VEC3","min":[0,0,3.75],"max":[0.25,1,4]},{"bufferView":91,"byteOffset":0,"componentType":5126,"count":36,"type":"VEC2"},{"bufferView":92,"byteOffset":0,"componentType":5123,"count":36,"type":"SCALAR"},{"bufferView":93,"byteOffset":0,"componentType":5126,"count":36,"type":"VEC3","min":[0.75,0,3.75],"max":[1,1,4]},{"bufferView":94,"byteOffset":0,"componentType":5126,"count":36,"type":"VEC2"},{"bufferView":95,"byteOffset":0,"componentType":5123,"count":36,"type":"SCALAR"},{"bufferView":96,"byteOffset":0,"componentType":5126,"count":36,"type":"VEC3","min":[1.5,0,3.75],"max":[1.75,1,4]},{"bufferView":97,"byteOffset":0,"componentType":5126,"count":36,"type":"VEC2"},{"bufferView":98,"byteOffset":0,"componentType":5123,"count":36,"type":"SCALAR"},{"bufferView":99,"byteOffset":0,"componentType":5126,"count":36,"type":"VEC3","min":[2.25,0,3.75],"max":[2.5,1,4]},{"bufferView":100,"byteOffset":0,"componentType":5126,"count":36,"type":"VEC2"},{"bufferView":101,"byteOffset":0,"componentType":5123,"count":36,"type":"SCALAR"},{"bufferView":102,"byteOffset":0,"componentType":5126,"count":36,"type":"VEC3","min":[3,0,3.75],"max":[3.25,1,4]},{"bufferView":103,"byteOffset":0,"componentType":5126,"count":36,"type":"VEC2"},{"bufferView":104,"byteOffset":0,"componentType":5123,"count":36,"type":"SCALAR"},{"bufferView":105,"byteOffset":0,"componentType":5126,"count":36,"type":"VEC3","min":[3.75,0,3.75],"max":[4,1,4]},{"bufferView":106,"byteOffset":0,"componentType":5126,"count":36,"type":"VEC2"},{"bufferView":107,"byteOffset":0,"componentType":5123,"count":36,"type":"SCALAR"},{"bufferView":108,"byteOffset":0,"componentType":5126,"count":36,"type":"VEC3","min":[3.75,0,-3.75],"max":[4,1,-3.5]},{"bufferView":109,"byteOffset":0,"componentType":5126,"count":36,"type":"VEC2"},{"bufferView":110,"byteOffset":0,"componentType":5123,"count":36,"type":"SCALAR"},{"bufferView":111,"byteOffset":0,"componentType":5126,"count":36,"type":"VEC3","min":[0,0,-4.5],"max":[0.25,1,-4.25]},{"bufferView":112,"byteOffset":0,"componentType":5126,"count":36,"type":"VEC2"},{"bufferView":113,"byteOffset":0,"componentType":5123,"count":36,"type":"SCALAR"},{"bufferView":114,"byteOffset":0,"componentType":5126,"count":36,"type":"VEC3","min":[-0.75,0,-4.5],"max":[-0.5,1,-4.25]},{"bufferView":115,"byteOffset":0,"componentType":5126,"count":36,"type":"VEC2"},{"bufferView":116,"byteOffset":0,"componentType":5123,"count":36,"type":"SCALAR"},{"bufferView":117,"byteOffset":0,"componentType":5126,"count":36,"type":"VEC3","min":[-1.5,0,-4.5],"max":[-1.25,1,-4.25]},{"bufferView":118,"byteOffset":0,"componentType":5126,"count":36,"type":"VEC2"},{"bufferView":119,"byteOffset":0,"componentType":5123,"count":36,"type":"SCALAR"},{"bufferView":120,"byteOffset":0,"componentType":5126,"count":36,"type":"VEC3","min":[-2.25,0,-4.5],"max":[-2,1,-4.25]},{"bufferView":121,"byteOffset":0,"componentType":5126,"count":36,"type":"VEC2"},{"bufferView":122,"byteOffset":0,"componentType":5123,"count":36,"type":"SCALAR"},{"bufferView":123,"byteOffset":0,"componentType":5126,"count":36,"type":"VEC3","min":[-3,0,-4.5],"max":[-2.75,1,-4.25]},{"bufferView":124,"byteOffset":0,"componentType":5126,"count":36,"type":"VEC2"},{"bufferView":125,"byteOffset":0,"componentType":5123,"count":36,"type":"SCALAR"},{"bufferView":126,"byteOffset":0,"componentType":5126,"count":36,"type":"VEC3","min":[-3.75,0,-4.5],"max":[-3.5,1,-4.25]},{"bufferView":127,"byteOffset":0,"componentType":5126,"count":36,"type":"VEC2"},{"bufferView":128,"byteOffset":0,"componentType":5123,"count":36,"type":"SCALAR"},{"bufferView":129,"byteOffset":0,"componentType":5126,"count":36,"type":"VEC3","min":[-4.5,0,-4.5],"max":[-4.25,1,-4.25]},{"bufferView":130,"byteOffset":0,"componentType":5126,"count":36,"type":"VEC2"},{"bufferView":131,"byteOffset":0,"componentType":5123,"count":36,"type":"SCALAR"},{"bufferView":132,"byteOffset":0,"componentType":5126,"count":36,"type":"VEC3","min":[3.75,0,-3],"max":[4,1,-2.75]},{"bufferView":133,"byteOffset":0,"componentType":5126,"count":36,"type":"VEC2"},{"bufferView":134,"byteOffset":0,"componentType":5123,"count":36,"type":"SCALAR"},{"bufferView":135,"byteOffset":0,"componentType":5126,"count":36,"type":"VEC3","min":[3.75,0,-2.25],"max":[4,1,-2]},{"bufferView":136,"byteOffset":0,"componentType":5126,"count":36,"type":"VEC2"},{"bufferView":137,"byteOffset":0,"componentType":5123,"count":36,"type":"SCALAR"},{"bufferView":138,"byteOffset":0,"componentType":5126,"count":36,"type":"VEC3","min":[3.75,0,-1.5],"max":[4,1,-1.25]},{"bufferView":139,"byteOffset":0,"componentType":5126,"count":36,"type":"VEC2"},{"bufferView":140,"byteOffset":0,"componentType":5123,"count":36,"type":"SCALAR"},{"bufferView":141,"byteOffset":0,"componentType":5126,"count":36,"type":"VEC3","min":[3.75,0,-0.75],"max":[4,1,-0.5]},{"bufferView":142,"byteOffset":0,"componentType":5126,"count":36,"type":"VEC2"},{"bufferView":143,"byteOffset":0,"componentType":5123,"count":36,"type":"SCALAR"},{"bufferView":144,"byteOffset":0,"componentType":5126,"count":36,"type":"VEC3","min":[3.75,0,-0],"max":[4,1,0.25]},{"bufferView":145,"byteOffset":0,"componentType":5126,"count":36,"type":"VEC2"},{"bufferView":146,"byteOffset":0,"componentType":5123,"count":36,"type":"SCALAR"},{"bufferView":147,"byteOffset":0,"componentType":5126,"count":36,"type":"VEC3","min":[3.75,0,0.75],"max":[4,1,1]},{"bufferView":148,"byteOffset":0,"componentType":5126,"count":36,"type":"VEC2"},{"bufferView":149,"byteOffset":0,"componentType":5123,"count":36,"type":"SCALAR"},{"bufferView":150,"byteOffset":0,"componentType":5126,"count":36,"type":"VEC3","min":[3.75,0,1.5],"max":[4,1,1.75]},{"bufferView":151,"byteOffset":0,"componentType":5126,"count":36,"type":"VEC2"},{"bufferView":152,"byteOffset":0,"componentType":5123,"count":36,"type":"SCALAR"},{"bufferView":153,"byteOffset":0,"componentType":5126,"count":36,"type":"VEC3","min":[3.75,0,2.25],"max":[4,1,2.5]},{"bufferView":154,"byteOffset":0,"componentType":5126,"count":36,"type":"VEC2"},{"bufferView":155,"byteOffset":0,"componentType":5123,"count":36,"type":"SCALAR"},{"bufferView":156,"byteOffset":0,"componentType":5126,"count":36,"type":"VEC3","min":[3.75,0,3],"max":[4,1,3.25]},{"bufferView":157,"byteOffset":0,"componentType":5126,"count":36,"type":"VEC2"},{"bufferView":158,"byteOffset":0,"componentType":5123,"count":36,"type":"SCALAR"},{"bufferView":159,"byteOffset":0,"componentType":5126,"count":36,"type":"VEC3","min":[3.75,0,-4.5],"max":[4,1,-4.25]},{"bufferView":160,"byteOffset":0,"componentType":5126,"count":36,"type":"VEC2"},{"bufferView":161,"byteOffset":0,"componentType":5123,"count":36,"type":"SCALAR"},{"bufferView":162,"byteOffset":0,"componentType":5126,"count":36,"type":"VEC3","min":[-4.5,0,-3.75],"max":[-4.25,1,-3.5]},{"bufferView":163,"byteOffset":0,"componentType":5126,"count":36,"type":"VEC2"},{"bufferView":164,"byteOffset":0,"componentType":5123,"count":36,"type":"SCALAR"},{"bufferView":165,"byteOffset":0,"componentType":5126,"count":36,"type":"VEC3","min":[-4.5,0,-3],"max":[-4.25,1,-2.75]},{"bufferView":166,"byteOffset":0,"componentType":5126,"count":36,"type":"VEC2"},{"bufferView":167,"byteOffset":0,"componentType":5123,"count":36,"type":"SCALAR"},{"bufferView":168,"byteOffset":0,"componentType":5126,"count":36,"type":"VEC3","min":[-4.5,0,-2.25],"max":[-4.25,1,-2]},{"bufferView":169,"byteOffset":0,"componentType":5126,"count":36,"type":"VEC2"},{"bufferView":170,"byteOffset":0,"componentType":5123,"count":36,"type":"SCALAR"},{"bufferView":171,"byteOffset":0,"componentType":5126,"count":36,"type":"VEC3","min":[-4.5,0,-1.5],"max":[-4.25,1,-1.25]},{"bufferView":172,"byteOffset":0,"componentType":5126,"count":36,"type":"VEC2"},{"bufferView":173,"byteOffset":0,"componentType":5123,"count":36,"type":"SCALAR"},{"bufferView":174,"byteOffset":0,"componentType":5126,"count":36,"type":"VEC3","min":[-4.5,0,-0.75],"max":[-4.25,1,-0.5]},{"bufferView":175,"byteOffset":0,"componentType":5126,"count":36,"type":"VEC2"},{"bufferView":176,"byteOffset":0,"componentType":5123,"count":36,"type":"SCALAR"},{"bufferView":177,"byteOffset":0,"componentType":5126,"count":36,"type":"VEC3","min":[-4.5,0,-0],"max":[-4.25,1,0.25]},{"bufferView":178,"byteOffset":0,"componentType":5126,"count":36,"type":"VEC2"},{"bufferView":179,"byteOffset":0,"componentType":5123,"count":36,"type":"SCALAR"},{"bufferView":180,"byteOffset":0,"componentType":5126,"count":36,"type":"VEC3","min":[-4.5,0,0.75],"max":[-4.25,1,1]},{"bufferView":181,"byteOffset":0,"componentType":5126,"count":36,"type":"VEC2"},{"bufferView":182,"byteOffset":0,"componentType":5123,"count":36,"type":"SCALAR"},{"bufferView":183,"byteOffset":0,"componentType":5126,"count":36,"type":"VEC3","min":[-4.5,0,1.5],"max":[-4.25,1,1.75]},{"bufferView":184,"byteOffset":0,"componentType":5126,"count":36,"type":"VEC2"},{"bufferView":185,"byteOffset":0,"componentType":5123,"count":36,"type":"SCALAR"},{"bufferView":186,"byteOffset":0,"componentType":5126,"count":36,"type":"VEC3","min":[-4.5,0,2.25],"max":[-4.25,1,2.5]},{"bufferView":187,"byteOffset":0,"componentType":5126,"count":36,"type":"VEC2"},{"bufferView":188,"byteOffset":0,"componentType":5123,"count":36,"type":"SCALAR"},{"bufferView":189,"byteOffset":0,"componentType":5126,"count":36,"type":"VEC3","min":[-4.5,0,3.75],"max":[-4.25,1,4]},{"bufferView":190,"byteOffset":0,"componentType":5126,"count":36,"type":"VEC2"},{"bufferView":191,"byteOffset":0,"componentType":5123,"count":36,"type":"SCALAR"},{"bufferView":192,"byteOffset":0,"componentType":5126,"count":36,"type":"VEC3","min":[0.5,-3.5,-7.25],"max":[4,-3,-6.25]},{"bufferView":193,"byteOffset":0,"componentType":5126,"count":36,"type":"VEC2"},{"bufferView":194,"byteOffset":0,"componentType":5123,"count":36,"type":"SCALAR"},{"bufferView":195,"byteOffset":0,"componentType":5126,"count":36,"type":"VEC3","min":[0.5,-2,-6.5],"max":[4,-1.5,-5.5]},{"bufferView":196,"byteOffset":0,"componentType":5126,"count":36,"type":"VEC2"},{"bufferView":197,"byteOffset":0,"componentType":5123,"count":36,"type":"SCALAR"},{"bufferView":198,"byteOffset":0,"componentType":5126,"count":36,"type":"VEC3","min":[3,-3.5,-7.25],"max":[4,0,-4.75]},{"bufferView":199,"byteOffset":0,"componentType":5126,"count":36,"type":"VEC2"},{"bufferView":200,"byteOffset":0,"componentType":5123,"count":36,"type":"SCALAR"},{"bufferView":201,"byteOffset":0,"componentType":5126,"count":36,"type":"VEC3","min":[0.5,-3.5,-7.25],"max":[1.5,0,-4.75]},{"bufferView":202,"byteOffset":0,"componentType":5126,"count":36,"type":"VEC2"},{"bufferView":203,"byteOffset":0,"componentType":5123,"count":36,"type":"SCALAR"},{"bufferView":204,"byteOffset":0,"componentType":5126,"count":36,"type":"VEC3","min":[0.5,-0.5,-6],"max":[4,1.11022e-16,-5]},{"bufferView":205,"byteOffset":0,"componentType":5126,"count":36,"type":"VEC2"},{"bufferView":206,"byteOffset":0,"componentType":5123,"count":36,"type":"SCALAR"},{"bufferView":207,"byteOffset":0,"componentType":5126,"count":66,"type":"VEC3","min":[4.03,-3.18,-1.33],"max":[4.57,-1.02,0.83]},{"bufferView":208,"byteOffset":0,"componentType":5126,"count":66,"type":"VEC2"},{"bufferView":209,"byteOffset":0,"componentType":5123,"count":66,"type":"SCALAR"},{"bufferView":210,"byteOffset":0,"componentType":5126,"count":66,"type":"VEC3","min":[-1.33,-3.18,-5.07],"max":[0.83,-1.02,-4.53]},{"bufferView":211,"byteOffset":0,"componentType":5126,"count":66,"type":"VEC2"},{"bufferView":212,"byteOffset":0,"componentType":5123,"count":66,"type":"SCALAR"},{"bufferView":213,"byteOffset":0,"componentType":5126,"count":66,"type":"VEC3","min":[-5.07,-3.18,-1.33],"max":[-4.53,-1.02,0.83]},{"bufferView":214,"byteOffset":0,"componentType":5126,"count":66,"type":"VEC2"},{"bufferView":215,"byteOffset":0,"componentType":5123,"count":66,"type":"SCALAR"},{"bufferView":216,"byteOffset":0,"componentType":5126,"count":66,"type":"VEC3","min":[-1.33,-3.18,4.03],"max":[0.83,-1.02,4.57]},{"bufferView":217,"byteOffset":0,"componentType":5126,"count":66,"type":"VEC2"},{"bufferView":218,"byteOffset":0,"componentType":5123,"count":66,"type":"SCALAR"}],
  "bufferViews": [{"buffer":0,"byteOffset":0,"byteLength":432,"target":34962},{"buffer":0,"byteOffset":432,"byteLength":288,"target":34962},{"buffer":0,"byteOffset":720,"byteLength":72,"target":34963},{"buffer":0,"byteOffset":792,"byteLength":432,"target":34962},{"buffer":0,"byteOffset":1224,"byteLength":288,"target":34962},{"buffer":0,"byteOffset":1512,"byteLength":72,"target":34963},{"buffer":0,"byteOffset":1584,"byteLength":432,"target":34962},{"buffer":0,"byteOffset":2016,"byteLength":288,"target":34962},{"buffer":0,"byteOffset":2304,"byteLength":72,"target":34963},{"buffer":0,"byteOffset":2376,"byteLength":432,"target":34962},{"buffer":0,"byteOffset":2808,"byteLength":288,"target":34962},{"buffer":0,"byteOffset":3096,"byteLength":72,"target":34963},{"buffer":0,"byteOffset":3168,"byteLength":432,"target":34962},{"buffer":0,"byteOffset":3600,"byteLength":288,"target":34962},{"buffer":0,"byteOffset":3888,"byteLength":72,"target":34963},{"buffer":0,"byteOffset":3960,"byteLength":432,"target":34962},{"buffer":0,"byteOffset":4392,"byteLength":288,"target":34962},{"buffer":0,"byteOffset":4680,"byteLength":72,"target":34963},{"buffer":0,"byteOffset":4752,"byteLength":432,"target":34962},{"buffer":0,"byteOffset":5184,"byteLength":288,"target":34962},{"buffer":0,"byteOffset":5472,"byteLength":72,"target":34963},{"buffer":0,"byteOffset":5544,"byteLength":432,"target":34962},{"buffer":0,"byteOffset":5976,"byteLength":288,"target":34962},{"buffer":0,"byteOffset":6264,"byteLength":72,"target":34963},{"buffer":0,"byteOffset":6336,"byteLength":432,"target":34962},{"buffer":0,"byteOffset":6768,"byteLength":288,"target":34962},{"buffer":0,"byteOffset":7056,"byteLength":72,"target":34963},{"buffer":0,"byteOffset":7128,"byteLength":432,"target":34962},{"buffer":0,"byteOffset":7560,"byteLength":288,"target":34962},{"buffer":0,"byteOffset":7848,"byteLength":72,"target":34963},{"buffer":0,"byteOffset":7920,"byteLength":432,"target":34962},{"buffer":0,"byteOffset":8352,"byteLength":288,"target":34962},{"buffer":0,"byteOffset":8640,"byteLength":72,"target":34963},{"buffer":0,"byteOffset":8712,"byteLength":432,"target":34962},{"buffer":0,"byteOffset":9144,"byteLength":288,"target":34962},{"buffer":0,"byteOffset":9432,"byteLength":72,"target":34963},{"buffer":0,"byteOffset":9504,"byteLength":432,"target":34962},{"buffer":0,"byteOffset":9936,"byteLength":288,"target":34962},{"buffer":0,"byteOffset":10224,"byteLength":72,"target":34963},{"buffer":0,"byteOffset":10296,"byteLength":432,"target":34962},{"buffer":0,"byteOffset":10728,"byteLength":288,"target":34962},{"buffer":0,"byteOffset":11016,"byteLength":72,"target":34963},{"buffer":0,"byteOffset":11088,"byteLength":432,"target":34962},{"buffer":0,"byteOffset":11520,"byteLength":288,"target":34962},{"buffer":0,"byteOffset":11808,"byteLength":72,"target":34963},{"buffer":0,"byteOffset":11880,"byteLength":432,"target":34962},{"buffer":0,"byteOffset":12312,"byteLength":288,"target":34962},{"buffer":0,"byteOffset":12600,"byteLength":72,"target":34963},{"buffer":0,"byteOffset":12672,"byteLength":432,"target":34962},{"buffer":0,"byteOffset":13104,"byteLength":288,"target":34962},{"buffer":0,"byteOffset":13392,"byteLength":72,"target":34963},{"buffer":0,"byteOffset":13464,"byteLength":432,"target":34962},{"buffer":0,"byteOffset":13896,"byteLength":288,"target":34962},{"buffer":0,"byteOffset":14184,"byteLength":72,"target":34963},{"buffer":0,"byteOffset":14256,"byteLength":432,"target":34962},{"buffer":0,"byteOffset":14688,"byteLength":288,"target":34962},{"buffer":0,"byteOffset":14976,"byteLength":72,"target":34963},{"buffer":0,"byteOffset":15048,"byteLength":432,"target":34962},{"buffer":0,"byteOffset":15480,"byteLength":288,"target":34962},{"buffer":0,"byteOffset":15768,"byteLength":72,"target":34963},{"buffer":0,"byteOffset":15840,"byteLength":432,"target":34962},{"buffer":0,"byteOffset":16272,"byteLength":288,"target":34962},{"buffer":0,"byteOffset":16560,"byteLength":72,"target":34963},{"buffer":0,"byteOffset":16632,"byteLength":432,"target":34962},{"buffer":0,"byteOffset":17064,"byteLength":288,"target":34962},{"buffer":0,"byteOffset":17352,"byteLength":72,"target":34963},{"buffer":0,"byteOffset":17424,"byteLength":432,"target":34962},{"buffer":0,"byteOffset":17856,"byteLength":288,"target":34962},{"buffer":0,"byteOffset":18144,"byteLength":72,"target":34963},{"buffer":0,"byteOffset":18216,"byteLength":432,"target":34962},{"buffer":0,"byteOffset":18648,"byteLength":288,"target":34962},{"buffer":0,"byteOffset":18936,"byteLength":72,"target":34963},{"buffer":0,"byteOffset":19008,"byteLength":432,"target":34962},{"buffer":0,"byteOffset":19440,"byteLength":288,"target":34962},{"buffer":0,"byteOffset":19728,"byteLength":72,"target":34963},{"buffer":0,"byteOffset":19800,"byteLength":432,"target":34962},{"buffer":0,"byteOffset":20232,"byteLength":288,"target":34962},{"buffer":0,"byteOffset":20520,"byteLength":72,"target":34963},{"buffer":0,"byteOffset":20592,"byteLength":432,"target":34962},{"buffer":0,"byteOffset":21024,"byteLength":288,"target":34962},{"buffer":0,"byteOffset":21312,"byteLength":72,"target":34963},{"buffer":0,"byteOffset":21384,"byteLength":432,"target":34962},{"buffer":0,"byteOffset":21816,"byteLength":288,"target":34962},{"buffer":0,"byteOffset":22104,"byteLength":72,"target":34963},{"buffer":0,"byteOffset":22176,"byteLength":432,"target":34962},{"buffer":0,"byteOffset":22608,"byteLength":288,"target":34962},{"buffer":0,"byteOffset":22896,"byteLength":72,"target":34963},{"buffer":0,"byteOffset":22968,"byteLength":432,"target":34962},{"buffer":0,"byteOffset":23400,"byteLength":288,"target":34962},{"buffer":0,"byteOffset":23688,"byteLength":72,"target":34963},{"buffer":0,"byteOffset":23760,"byteLength":432,"target":34962},{"buffer":0,"byteOffset":24192,"byteLength":288,"target":34962},{"buffer":0,"byteOffset":24480,"byteLength":72,"target":34963},{"buffer":0,"byteOffset":24552,"byteLength":432,"target":34962},{"buffer":0,"byteOffset":24984,"byteLength":288,"target":34962},{"buffer":0,"byteOffset":25272,"byteLength":72,"target":34963},{"buffer":0,"byteOffset":25344,"byteLength":432,"target":34962},{"buffer":0,"byteOffset":25776,"byteLength":288,"target":34962},{"buffer":0,"byteOffset":26064,"byteLength":72,"target":34963},{"buffer":0,"byteOffset":26136,"byteLength":432,"target":34962},{"buffer":0,"byteOffset":26568,"byteLength":288,"target":34962},{"buffer":0,"byteOffset":26856,"byteLength":72,"target":34963},{"buffer":0,"byteOffset":26928,"byteLength":432,"target":34962},{"buffer":0,"byteOffset":27360,"byteLength":288,"target":34962},{"buffer":0,"byteOffset":27648,"byteLength":72,"target":34963},{"buffer":0,"byteOffset":27720,"byteLength":432,"target":34962},{"buffer":0,"byteOffset":28152,"byteLength":288,"target":34962},{"buffer":0,"byteOffset":28440,"byteLength":72,"target":34963},{"buffer":0,"byteOffset":28512,"byteLength":432,"target":34962},{"buffer":0,"byteOffset":28944,"byteLength":288,"target":34962},{"buffer":0,"byteOffset":29232,"byteLength":72,"target":34963},{"buffer":0,"byteOffset":29304,"byteLength":432,"target":34962},{"buffer":0,"byteOffset":29736,"byteLength":288,"target":34962},{"buffer":0,"byteOffset":30024,"byteLength":72,"target":34963},{"buffer":0,"byteOffset":30096,"byteLength":432,"target":34962},{"buffer":0,"byteOffset":30528,"byteLength":288,"target":34962},{"buffer":0,"byteOffset":30816,"byteLength":72,"target":34963},{"buffer":0,"byteOffset":30888,"byteLength":432,"target":34962},{"buffer":0,"byteOffset":31320,"byteLength":288,"target":34962},{"buffer":0,"byteOffset":31608,"byteLength":72,"target":34963},{"buffer":0,"byteOffset":31680,"byteLength":432,"target":34962},{"buffer":0,"byteOffset":32112,"byteLength":288,"target":34962},{"buffer":0,"byteOffset":32400,"byteLength":72,"target":34963},{"buffer":0,"byteOffset":32472,"byteLength":432,"target":34962},{"buffer":0,"byteOffset":32904,"byteLength":288,"target":34962},{"buffer":0,"byteOffset":33192,"byteLength":72,"target":34963},{"buffer":0,"byteOffset":33264,"byteLength":432,"target":34962},{"buffer":0,"byteOffset":33696,"byteLength":288,"target":34962},{"buffer":0,"byteOffset":33984,"byteLength":72,"target":34963},{"buffer":0,"byteOffset":34056,"byteLength":432,"target":34962},{"buffer":0,"byteOffset":34488,"byteLength":288,"target":34962},{"buffer":0,"byteOffset":34776,"byteLength":72,"target":34963},{"buffer":0,"byteOffset":34848,"byteLength":432,"target":34962},{"buffer":0,"byteOffset":35280,"byteLength":288,"target":34962},{"buffer":0,"byteOffset":35568,"byteLength":72,"target":34963},{"buffer":0,"byteOffset":35640,"byteLength":432,"target":34962},{"buffer":0,"byteOffset":36072,"byteLength":288,"target":34962},{"buffer":0,"byteOffset":36360,"byteLength":72,"target":34963},{"buffer":0,"byteOffset":36432,"byteLength":432,"target":34962},{"buffer":0,"byteOffset":36864,"byteLength":288,"target":34962},{"buffer":0,"byteOffset":37152,"byteLength":72,"target":34963},{"buffer":0,"byteOffset":37224,"byteLength":432,"target":34962},{"buffer":0,"byteOffset":37656,"byteLength":288,"target":34962},{"buffer":0,"byteOffset":37944,"byteLength":72,"target":34963},{"buffer":0,"byteOffset":38016,"byteLength":432,"target":34962},{"buffer":0,"byteOffset":38448,"byteLength":288,"target":34962},{"buffer":0,"byteOffset":38736,"byteLength":72,"target":34963},{"buffer":0,"byteOffset":38808,"byteLength":432,"target":34962},{"buffer":0,"byteOffset":39240,"byteLength":288,"target":34962},{"buffer":0,"byteOffset":39528,"byteLength":72,"target":34963},{"buffer":0,"byteOffset":39600,"byteLength":432,"target":34962},{"buffer":0,"byteOffset":40032,"byteLength":288,"target":34962},{"buffer":0,"byteOffset":40320,"byteLength":72,"target":34963},{"buffer":0,"byteOffset":40392,"byteLength":432,"target":34962},{"buffer":0,"byteOffset":40824,"byteLength":288,"target":34962},{"buffer":0,"byteOffset":41112,"byteLength":72,"target":34963},{"buffer":0,"byteOffset":41184,"byteLength":432,"target":34962},{"buffer":0,"byteOffset":41616,"byteLength":288,"target":34962},{"buffer":0,"byteOffset":41904,"byteLength":72,"target":34963},{"buffer":0,"byteOffset":41976,"byteLength":432,"target":34962},{"buffer":0,"byteOffset":42408,"byteLength":288,"target":34962},{"buffer":0,"byteOffset":42696,"byteLength":72,"target":34963},{"buffer":0,"byteOffset":42768,"byteLength":432,"target":34962},{"buffer":0,"byteOffset":43200,"byteLength":288,"target":34962},{"buffer":0,"byteOffset":43488,"byteLength":72,"target":34963},{"buffer":0,"byteOffset":43560,"byteLength":432,"target":34962},{"buffer":0,"byteOffset":43992,"byteLength":288,"target":34962},{"buffer":0,"byteOffset":44280,"byteLength":72,"target":34963},{"buffer":0,"byteOffset":44352,"byteLength":432,"target":34962},{"buffer":0,"byteOffset":44784,"byteLength":288,"target":34962},{"buffer":0,"byteOffset":45072,"byteLength":72,"target":34963},{"buffer":0,"byteOffset":45144,"byteLength":432,"target":34962},{"buffer":0,"byteOffset":45576,"byteLength":288,"target":34962},{"buffer":0,"byteOffset":45864,"byteLength":72,"target":34963},{"buffer":0,"byteOffset":45936,"byteLength":432,"target":34962},{"buffer":0,"byteOffset":46368,"byteLength":288,"target":34962},{"buffer":0,"byteOffset":46656,"byteLength":72,"target":34963},{"buffer":0,"byteOffset":46728,"byteLength":432,"target":34962},{"buffer":0,"byteOffset":47160,"byteLength":288,"target":34962},{"buffer":0,"byteOffset":47448,"byteLength":72,"target":34963},{"buffer":0,"byteOffset":47520,"byteLength":432,"target":34962},{"buffer":0,"byteOffset":47952,"byteLength":288,"target":34962},{"buffer":0,"byteOffset":48240,"byteLength":72,"target":34963},{"buffer":0,"byteOffset":48312,"byteLength":432,"target":34962},{"buffer":0,"byteOffset":48744,"byteLength":288,"target":34962},{"buffer":0,"byteOffset":49032,"byteLength":72,"target":34963},{"buffer":0,"byteOffset":49104,"byteLength":432,"target":34962},{"buffer":0,"byteOffset":49536,"byteLength":288,"target":34962},{"buffer":0,"byteOffset":49824,"byteLength":72,"target":34963},{"buffer":0,"byteOffset":49896,"byteLength":432,"target":34962},{"buffer":0,"byteOffset":50328,"byteLength":288,"target":34962},{"buffer":0,"byteOffset":50616,"byteLength":72,"target":34963},{"buffer":0,"byteOffset":50688,"byteLength":432,"target":34962},{"buffer":0,"byteOffset":51120,"byteLength":288,"target":34962},{"buffer":0,"byteOffset":51408,"byteLength":72,"target":34963},{"buffer":0,"byteOffset":51480,"byteLength":432,"target":34962},{"buffer":0,"byteOffset":51912,"byteLength":288,"target":34962},{"buffer":0,"byteOffset":52200,"byteLength":72,"target":34963},{"buffer":0,"byteOffset":52272,"byteLength":432,"target":34962},{"buffer":0,"byteOffset":52704,"byteLength":288,"target":34962},{"buffer":0,"byteOffset":52992,"byteLength":72,"target":34963},{"buffer":0,"byteOffset":53064,"byteLength":432,"target":34962},{"buffer":0,"byteOffset":53496,"byteLength":288,"target":34962},{"buffer":0,"byteOffset":53784,"byteLength":72,"target":34963},{"buffer":0,"byteOffset":53856,"byteLength":432,"target":34962},{"buffer":0,"byteOffset":54288,"byteLength":288,"target":34962},{"buffer":0,"byteOffset":54576,"byteLength":72,"target":34963},{"buffer":0,"byteOffset":54648,"byteLength":792,"target":34962},{"buffer":0,"byteOffset":55440,"byteLength":528,"target":34962},{"buffer":0,"byteOffset":55968,"byteLength":132,"target":34963},{"buffer":0,"byteOffset":56100,"byteLength":792,"target":34962},{"buffer":0,"byteOffset":56892,"byteLength":528,"target":34962},{"buffer":0,"byteOffset":57420,"byteLength":132,"target":34963},{"buffer":0,"byteOffset":57552,"byteLength":792,"target":34962},{"buffer":0,"byteOffset":58344,"byteLength":528,"target":34962},{"buffer":0,"byteOffset":58872,"byteLength":132,"target":34963},{"buffer":0,"byteOffset":59004,"byteLength":792,"target":34962},{"buffer":0,"byteOffset":59796,"byteLength":528,"target":34962},{"buffer":0,"byteOffset":60324,"byteLength":132,"target":34963}],
  "buffers": [{ "uri": "beach-house.bin", "byteLength": 60456 }]
}