{
  "asset": { "version": "2.0" },
  "scene": 0,
  "scenes": [{ "nodes": [0] }],
  "nodes": [{"mesh":0}],
  "meshes": [{"primitives":[{"attributes":{"POSITION":0,"TEXCOORD_0":1},"indices":2,"material":0}]}],
  "materials": [{
    "pbrMetallicRoughness": {
      "baseColorTexture": { "index": 0 },
      "metallicFactor": 0.0,
      "roughnessFactor": 1.0
    }
  }],
  "textures": [{ "source": 0 }],
  "images": [{ "uri": "toillet.png" }],
  "accessors": [{"bufferView":0,"byteOffset":0,"componentType":5126,"count":48,"type":"VEC3","min":[-0.5005,-0.2498,-0.75],"max":[1.0002,1.9999,0.25]},{"bufferView":1,"byteOffset":0,"componentType":5126,"count":48,"type":"VEC2"},{"bufferView":2,"byteOffset":0,"componentType":5123,"count":48,"type":"SCALAR"}],
  "bufferViews": [{"buffer":0,"byteOffset":0,"byteLength":576,"target":34962},{"buffer":0,"byteOffset":576,"byteLength":384,"target":34962},{"buffer":0,"byteOffset":960,"byteLength":96,"target":34963}],
  "buffers": [{ "uri": "toillet.bin", "byteLength": 1056 }]
}