{
  "asset": { "version": "2.0" },
  "scene": 0,
  "scenes": [{ "nodes": [0,1,2,3,4,5,6] }],
  "nodes": [{"mesh":0},{"mesh":1},{"mesh":2},{"mesh":3},{"mesh":4},{"mesh":5},{"mesh":6}],
  "meshes": [{"primitives":[{"attributes":{"POSITION":0,"TEXCOORD_0":1},"indices":2,"material":0}]},{"primitives":[{"attributes":{"POSITION":3,"TEXCOORD_0":4},"indices":5,"material":0}]},{"primitives":[{"attributes":{"POSITION":6,"TEXCOORD_0":7},"indices":8,"material":0}]},{"primitives":[{"attributes":{"POSITION":9,"TEXCOORD_0":10},"indices":11,"material":0}]},{"primitives":[{"attributes":{"POSITION":12,"TEXCOORD_0":13},"indices":14,"material":0}]},{"primitives":[{"attributes":{"POSITION":15,"TEXCOORD_0":16},"indices":17,"material":0}]},{"primitives":[{"attributes":{"POSITION":18,"TEXCOORD_0":19},"indices":20,"material":0}]}],
  "materials": [{
    "pbrMetallicRoughness": {
      "baseColorTexture": { "index": 0 },
      "metallicFactor": 0.0,
      "roughnessFactor": 1.0
    }
  }],
  "textures": [{ "source": 0 }],
  "images": [{ "uri": "beach-volley.png" }],
  "accessors": [{"bufferView":0,"byteOffset":0,"componentType":5126,"count":6,"type":"VEC3","min":[-14.25,1,-0.5],"max":[16.75,1,0.5]},{"bufferView":1,"byteOffset":0,"componentType":5126,"count":6,"type":"VEC2"},{"bufferView":2,"byteOffset":0,"componentType":5123,"count":6,"type":"SCALAR"},{"bufferView":3,"byteOffset":0,"componentType":5126,"count":6,"type":"VEC3","min":[-14.5,1,-20.5],"max":[16.5,1,-19.5]},{"bufferView":4,"byteOffset":0,"componentType":5126,"count":6,"type":"VEC2"},{"bufferView":5,"byteOffset":0,"componentType":5123,"count":6,"type":"SCALAR"},{"bufferView":6,"byteOffset":0,"componentType":5126,"count":24,"type":"VEC3","min":[-8.88178e-16,2.75,-20.5],"max":[1,7.5,0.5]},{"bufferView":7,"byteOffset":0,"componentType":5126,"count":24,"type":"VEC2"},{"bufferView":8,"byteOffset":0,"componentType":5123,"count":24,"type":"SCALAR"},{"bufferView":9,"byteOffset":0,"componentType":5126,"count":36,"type":"VEC3","min":[-8.88178e-16,0,0.5],"max":[1,8.25,1.5]},{"bufferView":10,"byteOffset":0,"componentType":5126,"count":36,"type":"VEC2"},{"bufferView":11,"byteOffset":0,"componentType":5123,"count":36,"type":"SCALAR"},{"bufferView":12,"byteOffset":0,"componentType":5126,"count":36,"type":"VEC3","min":[-8.88178e-16,0,-21.5],"max":[1,8.25,-20.5]},{"bufferView":13,"byteOffset":0,"componentType":5126,"count":36,"type":"VEC2"},{"bufferView":14,"byteOffset":0,"componentType":5123,"count":36,"type":"SCALAR"},{"bufferView":15,"byteOffset":0,"componentType":5126,"count":6,"type":"VEC3","min":[15.75,1,-20.75],"max":[16.75,1,0.5]},{"bufferView":16,"byteOffset":0,"componentType":5126,"count":6,"type":"VEC2"},{"bufferView":17,"byteOffset":0,"componentType":5123,"count":6,"type":"SCALAR"},{"bufferView":18,"byteOffset":0,"componentType":5126,"count":6,"type":"VEC3","min":[-14.25,1,-20.75],"max":[-13.25,1,0.25]},{"bufferView":19,"byteOffset":0,"componentType":5126,"count":6,"type":"VEC2"},{"bufferView":20,"byteOffset":0,"componentType":5123,"count":6,"type":"SCALAR"}],
  "bufferViews": [{"buffer":0,"byteOffset":0,"byteLength":72,"target":34962},{"buffer":0,"byteOffset":72,"byteLength":48,"target":34962},{"buffer":0,"byteOffset":120,"byteLength":12,"target":34963},{"buffer":0,"byteOffset":132,"byteLength":72,"target":34962},{"buffer":0,"byteOffset":204,"byteLength":48,"target":34962},{"buffer":0,"byteOffset":252,"byteLength":12,"target":34963},{"buffer":0,"byteOffset":264,"byteLength":288,"target":34962},{"buffer":0,"byteOffset":552,"byteLength":192,"target":34962},{"buffer":0,"byteOffset":744,"byteLength":48,"target":34963},{"buffer":0,"byteOffset":792,"byteLength":432,"target":34962},{"buffer":0,"byteOffset":1224,"byteLength":288,"target":34962},{"buffer":0,"byteOffset":1512,"byteLength":72,"target":34963},{"buffer":0,"byteOffset":1584,"byteLength":432,"target":34962},{"buffer":0,"byteOffset":2016,"byteLength":288,"target":34962},{"buffer":0,"byteOffset":2304,"byteLength":72,"target":34963},{"buffer":0,"byteOffset":2376,"byteLength":72,"target":34962},{"buffer":0,"byteOffset":2448,"byteLength":48,"target":34962},{"buffer":0,"byteOffset":2496,"byteLength":12,"target":34963},{"buffer":0,"byteOffset":2508,"byteLength":72,"target":34962},{"buffer":0,"byteOffset":2580,"byteLength":48,"target":34962},{"buffer":0,"byteOffset":2628,"byteLength":12,"target":34963}],
  "buffers": [{ "uri": "beach-volley.bin", "byteLength": 2640 }]
}