{
  "asset": { "version": "2.0" },
  "scene": 0,
  "scenes": [{ "nodes": [0,1] }],
  "nodes": [{"mesh":0},{"mesh":1}],
  "meshes": [{"primitives":[{"attributes":{"POSITION":0,"TEXCOORD_0":1},"indices":2,"material":0}]},{"primitives":[{"attributes":{"POSITION":3,"TEXCOORD_0":4},"indices":5,"material":0}]}],
  "materials": [{
    "pbrMetallicRoughness": {
      "baseColorTexture": { "index": 0 },
      "metallicFactor": 0.0,
      "roughnessFactor": 1.0
    }
  }],
  "textures": [{ "source": 0 }],
  "images": [{ "uri": "sun-shade.png" }],
  "accessors": [{"bufferView":0,"byteOffset":0,"componentType":5126,"count":84,"type":"VEC3","min":[-4.3788,-1.8144,-3.8788],"max":[4.6932,1.8144,4.286]},{"bufferView":1,"byteOffset":0,"componentType":5126,"count":84,"type":"VEC2"},{"bufferView":2,"byteOffset":0,"componentType":5123,"count":84,"type":"SCALAR"},{"bufferView":3,"byteOffset":0,"componentType":5126,"count":36,"type":"VEC3","min":[0,-6.25,-0],"max":[0.25,0.25,0.25]},{"bufferView":4,"byteOffset":0,"componentType":5126,"count":36,"type":"VEC2"},{"bufferView":5,"byteOffset":0,"componentType":5123,"count":36,"type":"SCALAR"}],
  "bufferViews": [{"buffer":0,"byteOffset":0,"byteLength":1008,"target":34962},{"buffer":0,"byteOffset":1008,"byteLength":672,"target":34962},{"buffer":0,"byteOffset":1680,"byteLength":168,"target":34963},{"buffer":0,"byteOffset":1848,"byteLength":432,"target":34962},{"buffer":0,"byteOffset":2280,"byteLength":288,"target":34962},{"buffer":0,"byteOffset":2568,"byteLength":72,"target":34963}],
  "buffers": [{ "uri": "sun-shade.bin", "byteLength": 2640 }]
}