{
  "asset": { "version": "2.0" },
  "scene": 0,
  "scenes": [{ "nodes": [0,1,2,3,4,5,6,7,8,9,10,11,12,13,14] }],
  "nodes": [{"mesh":0},{"mesh":1},{"mesh":2},{"mesh":3},{"mesh":4},{"mesh":5},{"mesh":6},{"mesh":7},{"mesh":8},{"mesh":9},{"mesh":10},{"mesh":11},{"mesh":12},{"mesh":13},{"mesh":14}],
  "meshes": [{"primitives":[{"attributes":{"POSITION":0,"TEXCOORD_0":1},"indices":2,"material":0}]},{"primitives":[{"attributes":{"POSITION":3,"TEXCOORD_0":4},"indices":5,"material":0}]},{"primitives":[{"attributes":{"POSITION":6,"TEXCOORD_0":7},"indices":8,"material":0}]},{"primitives":[{"attributes":{"POSITION":9,"TEXCOORD_0":10},"indices":11,"material":0}]},{"primitives":[{"attributes":{"POSITION":12,"TEXCOORD_0":13},"indices":14,"material":0}]},{"primitives":[{"attributes":{"POSITION":15,"TEXCOORD_0":16},"indices":17,"material":0}]},{"primitives":[{"attributes":{"POSITION":18,"TEXCOORD_0":19},"indices":20,"material":0}]},{"primitives":[{"attributes":{"POSITION":21,"TEXCOORD_0":22},"indices":23,"material":0}]},{"primitives":[{"attributes":{"POSITION":24,"TEXCOORD_0":25},"indices":26,"material":0}]},{"primitives":[{"attributes":{"POSITION":27,"TEXCOORD_0":28},"indices":29,"material":0}]},{"primitives":[{"attributes":{"POSITION":30,"TEXCOORD_0":31},"indices":32,"material":0}]},{"primitives":[{"attributes":{"POSITION":33,"TEXCOORD_0":34},"indices":35,"material":0}]},{"primitives":[{"attributes":{"POSITION":36,"TEXCOORD_0":37},"indices":38,"material":0}]},{"primitives":[{"attributes":{"POSITION":39,"TEXCOORD_0":40},"indices":41,"material":0}]},{"primitives":[{"attributes":{"POSITION":42,"TEXCOORD_0":43},"indices":44,"material":0}]}],
  "materials": [{
    "pbrMetallicRoughness": {
      "baseColorTexture": { "index": 0 },
      "metallicFactor": 0.0,
      "roughnessFactor": 1.0
    }
  }],
  "textures": [{ "source": 0 }],
  "images": [{ "uri": "Broky.png" }],
  "accessors": [{"bufferView":0,"byteOffset":0,"componentType":5126,"count":84,"type":"VEC3","min":[-0.45,-0.45,-1.3],"max":[0.45,0.45,-0.95]},{"bufferView":1,"byteOffset":0,"componentType":5126,"count":84,"type":"VEC2"},{"bufferView":2,"byteOffset":0,"componentType":5123,"count":84,"type":"SCALAR"},{"bufferView":3,"byteOffset":0,"componentType":5126,"count":84,"type":"VEC3","min":[-0.45,-0.45,0.95],"max":[0.45,0.45,1.3]},{"bufferView":4,"byteOffset":0,"componentType":5126,"count":84,"type":"VEC2"},{"bufferView":5,"byteOffset":0,"componentType":5123,"count":84,"type":"SCALAR"},{"bufferView":6,"byteOffset":0,"componentType":5126,"count":78,"type":"VEC3","min":[-0.75,-0.75,-1],"max":[0.75,0.75,1]},{"bufferView":7,"byteOffset":0,"componentType":5126,"count":78,"type":"VEC2"},{"bufferView":8,"byteOffset":0,"componentType":5123,"count":78,"type":"SCALAR"},{"bufferView":9,"byteOffset":0,"componentType":5126,"count":12,"type":"VEC3","min":[0.75,-0.5,-1],"max":[0.75,0.5,1]},{"bufferView":10,"byteOffset":0,"componentType":5126,"count":12,"type":"VEC2"},{"bufferView":11,"byteOffset":0,"componentType":5123,"count":12,"type":"SCALAR"},{"bufferView":12,"byteOffset":0,"componentType":5126,"count":84,"type":"VEC3","min":[-0.74,-1.99,-0.99],"max":[0.24,-1.76,-0.26]},{"bufferView":13,"byteOffset":0,"componentType":5126,"count":84,"type":"VEC2"},{"bufferView":14,"byteOffset":0,"componentType":5123,"count":84,"type":"SCALAR"},{"bufferView":15,"byteOffset":0,"componentType":5126,"count":84,"type":"VEC3","min":[-0.74,-1.99,0.26],"max":[0.24,-1.76,0.99]},{"bufferView":16,"byteOffset":0,"componentType":5126,"count":84,"type":"VEC2"},{"bufferView":17,"byteOffset":0,"componentType":5123,"count":84,"type":"SCALAR"},{"bufferView":18,"byteOffset":0,"componentType":5126,"count":84,"type":"VEC3","min":[-0.5,-1.5,-0.75],"max":[0.75,-0.75,0.75]},{"bufferView":19,"byteOffset":0,"componentType":5126,"count":84,"type":"VEC2"},{"bufferView":20,"byteOffset":0,"componentType":5123,"count":84,"type":"SCALAR"},{"bufferView":21,"byteOffset":0,"componentType":5126,"count":84,"type":"VEC3","min":[-1,-1.5,-0.75],"max":[-0.5,-0.5,0.75]},{"bufferView":22,"byteOffset":0,"componentType":5126,"count":84,"type":"VEC2"},{"bufferView":23,"byteOffset":0,"componentType":5123,"count":84,"type":"SCALAR"},{"bufferView":24,"byteOffset":0,"componentType":5126,"count":66,"type":"VEC3","min":[-1.50687,-0.00604174,-2.25],"max":[1.58187,1.50042,2.275]},{"bufferView":25,"byteOffset":0,"componentType":5126,"count":66,"type":"VEC2"},{"bufferView":26,"byteOffset":0,"componentType":5123,"count":66,"type":"SCALAR"},{"bufferView":27,"byteOffset":0,"componentType":5126,"count":18,"type":"VEC3","min":[-3.5,1.25,-0.25],"max":[-1.56699,2.93301,0.25]},{"bufferView":28,"byteOffset":0,"componentType":5126,"count":18,"type":"VEC2"},{"bufferView":29,"byteOffset":0,"componentType":5123,"count":18,"type":"SCALAR"},{"bufferView":30,"byteOffset":0,"componentType":5126,"count":18,"type":"VEC3","min":[-2,0.816987,-0.5],"max":[-0.316987,2.75,0.5]},{"bufferView":31,"byteOffset":0,"componentType":5126,"count":18,"type":"VEC2"},{"bufferView":32,"byteOffset":0,"componentType":5123,"count":18,"type":"SCALAR"},{"bufferView":33,"byteOffset":0,"componentType":5126,"count":60,"type":"VEC3","min":[-0.225,-1.2049,-0.879904],"max":[0.225,-0.740192,-0.470096]},{"bufferView":34,"byteOffset":0,"componentType":5126,"count":60,"type":"VEC2"},{"bufferView":35,"byteOffset":0,"componentType":5123,"count":60,"type":"SCALAR"},{"bufferView":36,"byteOffset":0,"componentType":5126,"count":60,"type":"VEC3","min":[-0.225,-1.2049,0.470096],"max":[0.225,-0.740192,0.879904]},{"bufferView":37,"byteOffset":0,"componentType":5126,"count":60,"type":"VEC2"},{"bufferView":38,"byteOffset":0,"componentType":5123,"count":60,"type":"SCALAR"},{"bufferView":39,"byteOffset":0,"componentType":5126,"count":84,"type":"VEC3","min":[-0.25,-1.46651,-1.02901],"max":[0.25,-0.970994,-0.625]},{"bufferView":40,"byteOffset":0,"componentType":5126,"count":84,"type":"VEC2"},{"bufferView":41,"byteOffset":0,"componentType":5123,"count":84,"type":"SCALAR"},{"bufferView":42,"byteOffset":0,"componentType":5126,"count":84,"type":"VEC3","min":[-0.25,-1.46651,0.625],"max":[0.25,-0.970994,1.02901]},{"bufferView":43,"byteOffset":0,"componentType":5126,"count":84,"type":"VEC2"},{"bufferView":44,"byteOffset":0,"componentType":5123,"count":84,"type":"SCALAR"}],
  "bufferViews": [{"buffer":0,"byteOffset":0,"byteLength":1008,"target":34962},{"buffer":0,"byteOffset":1008,"byteLength":672,"target":34962},{"buffer":0,"byteOffset":1680,"byteLength":168,"target":34963},{"buffer":0,"byteOffset":1848,"byteLength":1008,"target":34962},{"buffer":0,"byteOffset":2856,"byteLength":672,"target":34962},{"buffer":0,"byteOffset":3528,"byteLength":168,"target":34963},{"buffer":0,"byteOffset":3696,"byteLength":936,"target":34962},{"buffer":0,"byteOffset":4632,"byteLength":624,"target":34962},{"buffer":0,"byteOffset":5256,"byteLength":156,"target":34963},{"buffer":0,"byteOffset":5412,"byteLength":144,"target":34962},{"buffer":0,"byteOffset":5556,"byteLength":96,"target":34962},{"buffer":0,"byteOffset":5652,"byteLength":24,"target":34963},{"buffer":0,"byteOffset":5676,"byteLength":1008,"target":34962},{"buffer":0,"byteOffset":6684,"byteLength":672,"target":34962},{"buffer":0,"byteOffset":7356,"byteLength":168,"target":34963},{"buffer":0,"byteOffset":7524,"byteLength":1008,"target":34962},{"buffer":0,"byteOffset":8532,"byteLength":672,"target":34962},{"buffer":0,"byteOffset":9204,"byteLength":168,"target":34963},{"buffer":0,"byteOffset":9372,"byteLength":1008,"target":34962},{"buffer":0,"byteOffset":10380,"byteLength":672,"target":34962},{"buffer":0,"byteOffset":11052,"byteLength":168,"target":34963},{"buffer":0,"byteOffset":11220,"byteLength":1008,"target":34962},{"buffer":0,"byteOffset":12228,"byteLength":672,"target":34962},{"buffer":0,"byteOffset":12900,"byteLength":168,"target":34963},{"buffer":0,"byteOffset":13068,"byteLength":792,"target":34962},{"buffer":0,"byteOffset":13860,"byteLength":528,"target":34962},{"buffer":0,"byteOffset":14388,"byteLength":132,"target":34963},{"buffer":0,"byteOffset":14520,"byteLength":216,"target":34962},{"buffer":0,"byteOffset":14736,"byteLength":144,"target":34962},{"buffer":0,"byteOffset":14880,"byteLength":36,"target":34963},{"buffer":0,"byteOffset":14916,"byteLength":216,"target":34962},{"buffer":0,"byteOffset":15132,"byteLength":144,"target":34962},{"buffer":0,"byteOffset":15276,"byteLength":36,"target":34963},{"buffer":0,"byteOffset":15312,"byteLength":720,"target":34962},{"buffer":0,"byteOffset":16032,"byteLength":480,"target":34962},{"buffer":0,"byteOffset":16512,"byteLength":120,"target":34963},{"buffer":0,"byteOffset":16632,"byteLength":720,"target":34962},{"buffer":0,"byteOffset":17352,"byteLength":480,"target":34962},{"buffer":0,"byteOffset":17832,"byteLength":120,"target":34963},{"buffer":0,"byteOffset":17952,"byteLength":1008,"target":34962},{"buffer":0,"byteOffset":18960,"byteLength":672,"target":34962},{"buffer":0,"byteOffset":19632,"byteLength":168,"target":34963},{"buffer":0,"byteOffset":19800,"byteLength":1008,"target":34962},{"buffer":0,"byteOffset":20808,"byteLength":672,"target":34962},{"buffer":0,"byteOffset":21480,"byteLength":168,"target":34963}],
  "buffers": [{ "uri": "Broky.bin", "byteLength": 21648 }]
}