{
  "asset": { "version": "2.0" },
  "scene": 0,
  "scenes": [{ "nodes": [0,1,2,3,4,5,6,7,8,9] }],
  "nodes": [{"mesh":0},{"mesh":1},{"mesh":2},{"mesh":3},{"mesh":4},{"mesh":5},{"mesh":6},{"mesh":7},{"mesh":8},{"mesh":9}],
  "meshes": [{"primitives":[{"attributes":{"POSITION":0,"TEXCOORD_0":1},"indices":2,"material":0}]},{"primitives":[{"attributes":{"POSITION":3,"TEXCOORD_0":4},"indices":5,"material":0}]},{"primitives":[{"attributes":{"POSITION":6,"TEXCOORD_0":7},"indices":8,"material":0}]},{"primitives":[{"attributes":{"POSITION":9,"TEXCOORD_0":10},"indices":11,"material":0}]},{"primitives":[{"attributes":{"POSITION":12,"TEXCOORD_0":13},"indices":14,"material":0}]},{"primitives":[{"attributes":{"POSITION":15,"TEXCOORD_0":16},"indices":17,"material":0}]},{"primitives":[{"attributes":{"POSITION":18,"TEXCOORD_0":19},"indices":20,"material":0}]},{"primitives":[{"attributes":{"POSITION":21,"TEXCOORD_0":22},"indices":23,"material":0}]},{"primitives":[{"attributes":{"POSITION":24,"TEXCOORD_0":25},"indices":26,"material":0}]},{"primitives":[{"attributes":{"POSITION":27,"TEXCOORD_0":28},"indices":29,"material":0}]}],
  "materials": [{
    "pbrMetallicRoughness": {
      "baseColorTexture": { "index": 0 },
      "metallicFactor": 0.0,
      "roughnessFactor": 1.0
    }
  }],
  "textures": [{ "source": 0 }],
  "images": [{ "uri": "Gear.png" }],
  "accessors": [{"bufferView":0,"byteOffset":0,"componentType":5126,"count":84,"type":"VEC3","min":[-0.8375,-0.50625,-0.50625],"max":[0.8375,0.50625,0.50625]},{"bufferView":1,"byteOffset":0,"componentType":5126,"count":84,"type":"VEC2"},{"bufferView":2,"byteOffset":0,"componentType":5123,"count":84,"type":"SCALAR"},{"bufferView":3,"byteOffset":0,"componentType":5126,"count":36,"type":"VEC3","min":[-0.5,-1.25,0.5],"max":[0.5,-0.5,1.25]},{"bufferView":4,"byteOffset":0,"componentType":5126,"count":36,"type":"VEC2"},{"bufferView":5,"byteOffset":0,"componentType":5123,"count":36,"type":"SCALAR"},{"bufferView":6,"byteOffset":0,"componentType":5126,"count":36,"type":"VEC3","min":[-0.5,0.5,0.5],"max":[0.5,1.25,1.25]},{"bufferView":7,"byteOffset":0,"componentType":5126,"count":36,"type":"VEC2"},{"bufferView":8,"byteOffset":0,"componentType":5123,"count":36,"type":"SCALAR"},{"bufferView":9,"byteOffset":0,"componentType":5126,"count":36,"type":"VEC3","min":[-0.5,-1.53033,-0.353553],"max":[0.5,-1,0.353553]},{"bufferView":10,"byteOffset":0,"componentType":5126,"count":36,"type":"VEC2"},{"bufferView":11,"byteOffset":0,"componentType":5123,"count":36,"type":"SCALAR"},{"bufferView":12,"byteOffset":0,"componentType":5126,"count":36,"type":"VEC3","min":[-0.5,-1.25,-1.25],"max":[0.5,-0.5,-0.5]},{"bufferView":13,"byteOffset":0,"componentType":5126,"count":36,"type":"VEC2"},{"bufferView":14,"byteOffset":0,"componentType":5123,"count":36,"type":"SCALAR"},{"bufferView":15,"byteOffset":0,"componentType":5126,"count":36,"type":"VEC3","min":[-0.5,0.5,-1.25],"max":[0.5,1.25,-0.5]},{"bufferView":16,"byteOffset":0,"componentType":5126,"count":36,"type":"VEC2"},{"bufferView":17,"byteOffset":0,"componentType":5123,"count":36,"type":"SCALAR"},{"bufferView":18,"byteOffset":0,"componentType":5126,"count":36,"type":"VEC3","min":[-0.5,1,-0.353553],"max":[0.5,1.53033,0.353553]},{"bufferView":19,"byteOffset":0,"componentType":5126,"count":36,"type":"VEC2"},{"bufferView":20,"byteOffset":0,"componentType":5123,"count":36,"type":"SCALAR"},{"bufferView":21,"byteOffset":0,"componentType":5126,"count":36,"type":"VEC3","min":[-0.5,-0.353553,-1.53033],"max":[0.5,0.353553,-1]},{"bufferView":22,"byteOffset":0,"componentType":5126,"count":36,"type":"VEC2"},{"bufferView":23,"byteOffset":0,"componentType":5123,"count":36,"type":"SCALAR"},{"bufferView":24,"byteOffset":0,"componentType":5126,"count":36,"type":"VEC3","min":[-0.5,-0.353553,1],"max":[0.5,0.353553,1.53033]},{"bufferView":25,"byteOffset":0,"componentType":5126,"count":36,"type":"VEC2"},{"bufferView":26,"byteOffset":0,"componentType":5123,"count":36,"type":"SCALAR"},{"bufferView":27,"byteOffset":0,"componentType":5126,"count":84,"type":"VEC3","min":[-0.675,-1.0125,-1.0125],"max":[0.675,1.0125,1.0125]},{"bufferView":28,"byteOffset":0,"componentType":5126,"count":84,"type":"VEC2"},{"bufferView":29,"byteOffset":0,"componentType":5123,"count":84,"type":"SCALAR"}],
  "bufferViews": [{"buffer":0,"byteOffset":0,"byteLength":1008,"target":34962},{"buffer":0,"byteOffset":1008,"byteLength":672,"target":34962},{"buffer":0,"byteOffset":1680,"byteLength":168,"target":34963},{"buffer":0,"byteOffset":1848,"byteLength":432,"target":34962},{"buffer":0,"byteOffset":2280,"byteLength":288,"target":34962},{"buffer":0,"byteOffset":2568,"byteLength":72,"target":34963},{"buffer":0,"byteOffset":2640,"byteLength":432,"target":34962},{"buffer":0,"byteOffset":3072,"byteLength":288,"target":34962},{"buffer":0,"byteOffset":3360,"byteLength":72,"target":34963},{"buffer":0,"byteOffset":3432,"byteLength":432,"target":34962},{"buffer":0,"byteOffset":3864,"byteLength":288,"target":34962},{"buffer":0,"byteOffset":4152,"byteLength":72,"target":34963},{"buffer":0,"byteOffset":4224,"byteLength":432,"target":34962},{"buffer":0,"byteOffset":4656,"byteLength":288,"target":34962},{"buffer":0,"byteOffset":4944,"byteLength":72,"target":34963},{"buffer":0,"byteOffset":5016,"byteLength":432,"target":34962},{"buffer":0,"byteOffset":5448,"byteLength":288,"target":34962},{"buffer":0,"byteOffset":5736,"byteLength":72,"target":34963},{"buffer":0,"byteOffset":5808,"byteLength":432,"target":34962},{"buffer":0,"byteOffset":6240,"byteLength":288,"target":34962},{"buffer":0,"byteOffset":6528,"byteLength":72,"target":34963},{"buffer":0,"byteOffset":6600,"byteLength":432,"target":34962},{"buffer":0,"byteOffset":7032,"byteLength":288,"target":34962},{"buffer":0,"byteOffset":7320,"byteLength":72,"target":34963},{"buffer":0,"byteOffset":7392,"byteLength":432,"target":34962},{"buffer":0,"byteOffset":7824,"byteLength":288,"target":34962},{"buffer":0,"byteOffset":8112,"byteLength":72,"target":34963},{"buffer":0,"byteOffset":8184,"byteLength":1008,"target":34962},{"buffer":0,"byteOffset":9192,"byteLength":672,"target":34962},{"buffer":0,"byteOffset":9864,"byteLength":168,"target":34963}],
  "buffers": [{ "uri": "Gear.bin", "byteLength": 10032 }]
}