{
  "asset": { "version": "2.0" },
  "scene": 0,
  "scenes": [{ "nodes": [0,1,2] }],
  "nodes": [{"mesh":0},{"mesh":1},{"mesh":2}],
  "meshes": [{"primitives":[{"attributes":{"POSITION":0,"TEXCOORD_0":1},"indices":2,"material":0}]},{"primitives":[{"attributes":{"POSITION":3,"TEXCOORD_0":4},"indices":5,"material":0}]},{"primitives":[{"attributes":{"POSITION":6,"TEXCOORD_0":7},"indices":8,"material":0}]}],
  "materials": [{
    "pbrMetallicRoughness": {
      "baseColorTexture": { "index": 0 },
      "metallicFactor": 0.0,
      "roughnessFactor": 1.0
    }
  }],
  "textures": [{ "source": 0 }],
  "images": [{ "uri": "Dead-Tree.png" }],
  "accessors": [{"bufferView":0,"byteOffset":0,"componentType":5126,"count":18,"type":"VEC3","min":[-0.75,-0.75,-0.25],"max":[0.75,2,0.75]},{"bufferView":1,"byteOffset":0,"componentType":5126,"count":18,"type":"VEC2"},{"bufferView":2,"byteOffset":0,"componentType":5123,"count":18,"type":"SCALAR"},{"bufferView":3,"byteOffset":0,"componentType":5126,"count":18,"type":"VEC3","min":[-0.25,0.146447,-0.103553],"max":[0.25,1.23744,0.987437]},{"bufferView":4,"byteOffset":0,"componentType":5126,"count":18,"type":"VEC2"},{"bufferView":5,"byteOffset":0,"componentType":5123,"count":18,"type":"SCALAR"},{"bufferView":6,"byteOffset":0,"componentType":5126,"count":18,"type":"VEC3","min":[-0.5,-0.353553,-0.987437],"max":[0.5,0.737437,0.353553]},{"bufferView":7,"byteOffset":0,"componentType":5126,"count":18,"type":"VEC2"},{"bufferView":8,"byteOffset":0,"componentType":5123,"count":18,"type":"SCALAR"}],
  "bufferViews": [{"buffer":0,"byteOffset":0,"byteLength":216,"target":34962},{"buffer":0,"byteOffset":216,"byteLength":144,"target":34962},{"buffer":0,"byteOffset":360,"byteLength":36,"target":34963},{"buffer":0,"byteOffset":396,"byteLength":216,"target":34962},{"buffer":0,"byteOffset":612,"byteLength":144,"target":34962},{"buffer":0,"byteOffset":756,"byteLength":36,"target":34963},{"buffer":0,"byteOffset":792,"byteLength":216,"target":34962},{"buffer":0,"byteOffset":1008,"byteLength":144,"target":34962},{"buffer":0,"byteOffset":1152,"byteLength":36,"target":34963}],
  "buffers": [{ "uri": "Dead-Tree.bin", "byteLength": 1188 }]
}