{
  "asset": { "version": "2.0" },
  "scene": 0,
  "scenes": [{ "nodes": [0,1,2,3,4] }],
  "nodes": [{"mesh":0},{"mesh":1},{"mesh":2},{"mesh":3},{"mesh":4}],
  "meshes": [{"primitives":[{"attributes":{"POSITION":0,"TEXCOORD_0":1},"indices":2,"material":0}]},{"primitives":[{"attributes":{"POSITION":3,"TEXCOORD_0":4},"indices":5,"material":0}]},{"primitives":[{"attributes":{"POSITION":6,"TEXCOORD_0":7},"indices":8,"material":0}]},{"primitives":[{"attributes":{"POSITION":9,"TEXCOORD_0":10},"indices":11,"material":0}]},{"primitives":[{"attributes":{"POSITION":12,"TEXCOORD_0":13},"indices":14,"material":0}]}],
  "materials": [{
    "pbrMetallicRoughness": {
      "baseColorTexture": { "index": 0 },
      "metallicFactor": 0.0,
      "roughnessFactor": 1.0
    }
  }],
  "textures": [{ "source": 0 }],
  "images": [{ "uri": "unnamed_20.png" }],
  "accessors": [{"bufferView":0,"byteOffset":0,"componentType":5126,"count":84,"type":"VEC3","min":[-1.75,-1.5,-0.75],"max":[-0.25,0.5,0.75]},{"bufferView":1,"byteOffset":0,"componentType":5126,"count":84,"type":"VEC2"},{"bufferView":2,"byteOffset":0,"componentType":5123,"count":84,"type":"SCALAR"},{"bufferView":3,"byteOffset":0,"componentType":5126,"count":84,"type":"VEC3","min":[0,-1.5,-0.75],"max":[1.5,0.5,0.75]},{"bufferView":4,"byteOffset":0,"componentType":5126,"count":84,"type":"VEC2"},{"bufferView":5,"byteOffset":0,"componentType":5123,"count":84,"type":"SCALAR"},{"bufferView":6,"byteOffset":0,"componentType":5126,"count":84,"type":"VEC3","min":[-1.75,1,-0.75],"max":[1.5,2.75,0.75]},{"bufferView":7,"byteOffset":0,"componentType":5126,"count":84,"type":"VEC2"},{"bufferView":8,"byteOffset":0,"componentType":5123,"count":84,"type":"SCALAR"},{"bufferView":9,"byteOffset":0,"componentType":5126,"count":84,"type":"VEC3","min":[-1.75,0,-0.75],"max":[1.5,1,0.75]},{"bufferView":10,"byteOffset":0,"componentType":5126,"count":84,"type":"VEC2"},{"bufferView":11,"byteOffset":0,"componentType":5123,"count":84,"type":"SCALAR"},{"bufferView":12,"byteOffset":0,"componentType":5126,"count":84,"type":"VEC3","min":[-1.175,3.55,-0.675],"max":[0.925,4.45,0.675]},{"bufferView":13,"byteOffset":0,"componentType":5126,"count":84,"type":"VEC2"},{"bufferView":14,"byteOffset":0,"componentType":5123,"count":84,"type":"SCALAR"}],
  "bufferViews": [{"buffer":0,"byteOffset":0,"byteLength":1008,"target":34962},{"buffer":0,"byteOffset":1008,"byteLength":672,"target":34962},{"buffer":0,"byteOffset":1680,"byteLength":168,"target":34963},{"buffer":0,"byteOffset":1848,"byteLength":1008,"target":34962},{"buffer":0,"byteOffset":2856,"byteLength":672,"target":34962},{"buffer":0,"byteOffset":3528,"byteLength":168,"target":34963},{"buffer":0,"byteOffset":3696,"byteLength":1008,"target":34962},{"buffer":0,"byteOffset":4704,"byteLength":672,"target":34962},{"buffer":0,"byteOffset":5376,"byteLength":168,"target":34963},{"buffer":0,"byteOffset":5544,"byteLength":1008,"target":34962},{"buffer":0,"byteOffset":6552,"byteLength":672,"target":34962},{"buffer":0,"byteOffset":7224,"byteLength":168,"target":34963},{"buffer":0,"byteOffset":7392,"byteLength":1008,"target":34962},{"buffer":0,"byteOffset":8400,"byteLength":672,"target":34962},{"buffer":0,"byteOffset":9072,"byteLength":168,"target":34963}],
  "buffers": [{ "uri": "unnamed_20.bin", "byteLength": 9240 }]
}