{
  "asset": { "version": "2.0" },
  "scene": 0,
  "scenes": [{ "nodes": [0,1,2,3,4,5,6,7,8,9,10,11] }],
  "nodes": [{"mesh":0},{"mesh":1},{"mesh":2},{"mesh":3},{"mesh":4},{"mesh":5},{"mesh":6},{"mesh":7},{"mesh":8},{"mesh":9},{"mesh":10},{"mesh":11}],
  "meshes": [{"primitives":[{"attributes":{"POSITION":0,"TEXCOORD_0":1},"indices":2,"material":0}]},{"primitives":[{"attributes":{"POSITION":3,"TEXCOORD_0":4},"indices":5,"material":0}]},{"primitives":[{"attributes":{"POSITION":6,"TEXCOORD_0":7},"indices":8,"material":0}]},{"primitives":[{"attributes":{"POSITION":9,"TEXCOORD_0":10},"indices":11,"material":0}]},{"primitives":[{"attributes":{"POSITION":12,"TEXCOORD_0":13},"indices":14,"material":0}]},{"primitives":[{"attributes":{"POSITION":15,"TEXCOORD_0":16},"indices":17,"material":0}]},{"primitives":[{"attributes":{"POSITION":18,"TEXCOORD_0":19},"indices":20,"material":0}]},{"primitives":[{"attributes":{"POSITION":21,"TEXCOORD_0":22},"indices":23,"material":0}]},{"primitives":[{"attributes":{"POSITION":24,"TEXCOORD_0":25},"indices":26,"material":0}]},{"primitives":[{"attributes":{"POSITION":27,"TEXCOORD_0":28},"indices":29,"material":0}]},{"primitives":[{"attributes":{"POSITION":30,"TEXCOORD_0":31},"indices":32,"material":0}]},{"primitives":[{"attributes":{"POSITION":33,"TEXCOORD_0":34},"indices":35,"material":0}]}],
  "materials": [{
    "pbrMetallicRoughness": {
      "baseColorTexture": { "index": 0 },
      "metallicFactor": 0.0,
      "roughnessFactor": 1.0
    }
  }],
  "textures": [{ "source": 0 }],
  "images": [{ "uri": "Tree-3.png" }],
  "accessors": [{"bufferView":0,"byteOffset":0,"componentType":5126,"count":36,"type":"VEC3","min":[-0.4,0.6,-3.65],"max":[0.9,1.9,-1.35]},{"bufferView":1,"byteOffset":0,"componentType":5126,"count":36,"type":"VEC2"},{"bufferView":2,"byteOffset":0,"componentType":5123,"count":36,"type":"SCALAR"},{"bufferView":3,"byteOffset":0,"componentType":5126,"count":36,"type":"VEC3","min":[-0.25,0.5,-1.25],"max":[1.5,2.25,1.25]},{"bufferView":4,"byteOffset":0,"componentType":5126,"count":36,"type":"VEC2"},{"bufferView":5,"byteOffset":0,"componentType":5123,"count":36,"type":"SCALAR"},{"bufferView":6,"byteOffset":0,"componentType":5126,"count":36,"type":"VEC3","min":[-0.25,0.25,1.5],"max":[0.75,1.25,3.5]},{"bufferView":7,"byteOffset":0,"componentType":5126,"count":36,"type":"VEC2"},{"bufferView":8,"byteOffset":0,"componentType":5123,"count":36,"type":"SCALAR"},{"bufferView":9,"byteOffset":0,"componentType":5126,"count":36,"type":"VEC3","min":[-2.97633,1.34351,-4.3632],"max":[4.67084,9.53667,3.9682]},{"bufferView":10,"byteOffset":0,"componentType":5126,"count":36,"type":"VEC2"},{"bufferView":11,"byteOffset":0,"componentType":5123,"count":36,"type":"SCALAR"},{"bufferView":12,"byteOffset":0,"componentType":5126,"count":84,"type":"VEC3","min":[-0.3125,-4.75,-0.9375],"max":[1.5625,-0.375,0.75]},{"bufferView":13,"byteOffset":0,"componentType":5126,"count":84,"type":"VEC2"},{"bufferView":14,"byteOffset":0,"componentType":5123,"count":84,"type":"SCALAR"},{"bufferView":15,"byteOffset":0,"componentType":5126,"count":84,"type":"VEC3","min":[0.3125,-0.875,-2.3125],"max":[0.6875,0.625,-1.75]},{"bufferView":16,"byteOffset":0,"componentType":5126,"count":84,"type":"VEC2"},{"bufferView":17,"byteOffset":0,"componentType":5123,"count":84,"type":"SCALAR"},{"bufferView":18,"byteOffset":0,"componentType":5126,"count":84,"type":"VEC3","min":[0.0625,-0.75,0.375],"max":[0.4375,-0.1875,1.875]},{"bufferView":19,"byteOffset":0,"componentType":5126,"count":84,"type":"VEC2"},{"bufferView":20,"byteOffset":0,"componentType":5123,"count":84,"type":"SCALAR"},{"bufferView":21,"byteOffset":0,"componentType":5126,"count":84,"type":"VEC3","min":[0.11875,-0.7125,1.78125],"max":[0.38125,0.3375,2.175]},{"bufferView":22,"byteOffset":0,"componentType":5126,"count":84,"type":"VEC2"},{"bufferView":23,"byteOffset":0,"componentType":5123,"count":84,"type":"SCALAR"},{"bufferView":24,"byteOffset":0,"componentType":5126,"count":84,"type":"VEC3","min":[2.36875,-0.7125,0.53125],"max":[2.88125,2.0875,0.925]},{"bufferView":25,"byteOffset":0,"componentType":5126,"count":84,"type":"VEC2"},{"bufferView":26,"byteOffset":0,"componentType":5123,"count":84,"type":"SCALAR"},{"bufferView":27,"byteOffset":0,"componentType":5126,"count":84,"type":"VEC3","min":[1.125,-0.75,0.5625],"max":[2.875,-0.1875,0.9375]},{"bufferView":28,"byteOffset":0,"componentType":5126,"count":84,"type":"VEC2"},{"bufferView":29,"byteOffset":0,"componentType":5123,"count":84,"type":"SCALAR"},{"bufferView":30,"byteOffset":0,"componentType":5126,"count":84,"type":"VEC3","min":[0.3125,-0.8125,-1.875],"max":[0.6875,-0.25,-0.375]},{"bufferView":31,"byteOffset":0,"componentType":5126,"count":84,"type":"VEC2"},{"bufferView":32,"byteOffset":0,"componentType":5123,"count":84,"type":"SCALAR"},{"bufferView":33,"byteOffset":0,"componentType":5126,"count":84,"type":"VEC3","min":[0.125,-3.75,-0.625],"max":[0.875,0.5,0.5]},{"bufferView":34,"byteOffset":0,"componentType":5126,"count":84,"type":"VEC2"},{"bufferView":35,"byteOffset":0,"componentType":5123,"count":84,"type":"SCALAR"}],
  "bufferViews": [{"buffer":0,"byteOffset":0,"byteLength":432,"target":34962},{"buffer":0,"byteOffset":432,"byteLength":288,"target":34962},{"buffer":0,"byteOffset":720,"byteLength":72,"target":34963},{"buffer":0,"byteOffset":792,"byteLength":432,"target":34962},{"buffer":0,"byteOffset":1224,"byteLength":288,"target":34962},{"buffer":0,"byteOffset":1512,"byteLength":72,"target":34963},{"buffer":0,"byteOffset":1584,"byteLength":432,"target":34962},{"buffer":0,"byteOffset":2016,"byteLength":288,"target":34962},{"buffer":0,"byteOffset":2304,"byteLength":72,"target":34963},{"buffer":0,"byteOffset":2376,"byteLength":432,"target":34962},{"buffer":0,"byteOffset":2808,"byteLength":288,"target":34962},{"buffer":0,"byteOffset":3096,"byteLength":72,"target":34963},{"buffer":0,"byteOffset":3168,"byteLength":1008,"target":34962},{"buffer":0,"byteOffset":4176,"byteLength":672,"target":34962},{"buffer":0,"byteOffset":4848,"byteLength":168,"target":34963},{"buffer":0,"byteOffset":5016,"byteLength":1008,"target":34962},{"buffer":0,"byteOffset":6024,"byteLength":672,"target":34962},{"buffer":0,"byteOffset":6696,"byteLength":168,"target":34963},{"buffer":0,"byteOffset":6864,"byteLength":1008,"target":34962},{"buffer":0,"byteOffset":7872,"byteLength":672,"target":34962},{"buffer":0,"byteOffset":8544,"byteLength":168,"target":34963},{"buffer":0,"byteOffset":8712,"byteLength":1008,"target":34962},{"buffer":0,"byteOffset":9720,"byteLength":672,"target":34962},{"buffer":0,"byteOffset":10392,"byteLength":168,"target":34963},{"buffer":0,"byteOffset":10560,"byteLength":1008,"target":34962},{"buffer":0,"byteOffset":11568,"byteLength":672,"target":34962},{"buffer":0,"byteOffset":12240,"byteLength":168,"target":34963},{"buffer":0,"byteOffset":12408,"byteLength":1008,"target":34962},{"buffer":0,"byteOffset":13416,"byteLength":672,"target":34962},{"buffer":0,"byteOffset":14088,"byteLength":168,"target":34963},{"buffer":0,"byteOffset":14256,"byteLength":1008,"target":34962},{"buffer":0,"byteOffset":15264,"byteLength":672,"target":34962},{"buffer":0,"byteOffset":15936,"byteLength":168,"target":34963},{"buffer":0,"byteOffset":16104,"byteLength":1008,"target":34962},{"buffer":0,"byteOffset":17112,"byteLength":672,"target":34962},{"buffer":0,"byteOffset":17784,"byteLength":168,"target":34963}],
  "buffers": [{ "uri": "Tree-3.bin", "byteLength": 17952 }]
}