{
  "asset": { "version": "2.0" },
  "scene": 0,
  "scenes": [{ "nodes": [0,1,2,3,4,5,6,7,8,9] }],
  "nodes": [{"mesh":0},{"mesh":1},{"mesh":2},{"mesh":3},{"mesh":4},{"mesh":5},{"mesh":6},{"mesh":7},{"mesh":8},{"mesh":9}],
  "meshes": [{"primitives":[{"attributes":{"POSITION":0,"TEXCOORD_0":1},"indices":2,"material":0}]},{"primitives":[{"attributes":{"POSITION":3,"TEXCOORD_0":4},"indices":5,"material":0}]},{"primitives":[{"attributes":{"POSITION":6,"TEXCOORD_0":7},"indices":8,"material":0}]},{"primitives":[{"attributes":{"POSITION":9,"TEXCOORD_0":10},"indices":11,"material":0}]},{"primitives":[{"attributes":{"POSITION":12,"TEXCOORD_0":13},"indices":14,"material":0}]},{"primitives":[{"attributes":{"POSITION":15,"TEXCOORD_0":16},"indices":17,"material":0}]},{"primitives":[{"attributes":{"POSITION":18,"TEXCOORD_0":19},"indices":20,"material":0}]},{"primitives":[{"attributes":{"POSITION":21,"TEXCOORD_0":22},"indices":23,"material":0}]},{"primitives":[{"attributes":{"POSITION":24,"TEXCOORD_0":25},"indices":26,"material":0}]},{"primitives":[{"attributes":{"POSITION":27,"TEXCOORD_0":28},"indices":29,"material":0}]}],
  "materials": [{
    "pbrMetallicRoughness": {
      "baseColorTexture": { "index": 0 },
      "metallicFactor": 0.0,
      "roughnessFactor": 1.0
    }
  }],
  "textures": [{ "source": 0 }],
  "images": [{ "uri": "unnamed_17.png" }],
  "accessors": [{"bufferView":0,"byteOffset":0,"componentType":5126,"count":36,"type":"VEC3","min":[-2.25,-0.5,-0.75],"max":[2,0.5,0.5]},{"bufferView":1,"byteOffset":0,"componentType":5126,"count":36,"type":"VEC2"},{"bufferView":2,"byteOffset":0,"componentType":5123,"count":36,"type":"SCALAR"},{"bufferView":3,"byteOffset":0,"componentType":5126,"count":36,"type":"VEC3","min":[0,0.137628,-0.668258],"max":[1.75,0.637928,0.362372]},{"bufferView":4,"byteOffset":0,"componentType":5126,"count":36,"type":"VEC2"},{"bufferView":5,"byteOffset":0,"componentType":5123,"count":36,"type":"SCALAR"},{"bufferView":6,"byteOffset":0,"componentType":5126,"count":36,"type":"VEC3","min":[-2,0.137628,-0.668258],"max":[-0.25,0.637928,0.362372]},{"bufferView":7,"byteOffset":0,"componentType":5126,"count":36,"type":"VEC2"},{"bufferView":8,"byteOffset":0,"componentType":5123,"count":36,"type":"SCALAR"},{"bufferView":9,"byteOffset":0,"componentType":5126,"count":36,"type":"VEC3","min":[-2.35,-0.1,0.15],"max":[-2.15,0.85,0.35]},{"bufferView":10,"byteOffset":0,"componentType":5126,"count":36,"type":"VEC2"},{"bufferView":11,"byteOffset":0,"componentType":5123,"count":36,"type":"SCALAR"},{"bufferView":12,"byteOffset":0,"componentType":5126,"count":36,"type":"VEC3","min":[-2.75,-0.5,-0.75],"max":[-2.25,0,0.25]},{"bufferView":13,"byteOffset":0,"componentType":5126,"count":36,"type":"VEC2"},{"bufferView":14,"byteOffset":0,"componentType":5123,"count":36,"type":"SCALAR"},{"bufferView":15,"byteOffset":0,"componentType":5126,"count":36,"type":"VEC3","min":[-0.75,-0.5,-1.25],"max":[0.25,0,-0.75]},{"bufferView":16,"byteOffset":0,"componentType":5126,"count":36,"type":"VEC2"},{"bufferView":17,"byteOffset":0,"componentType":5123,"count":36,"type":"SCALAR"},{"bufferView":18,"byteOffset":0,"componentType":5126,"count":84,"type":"VEC3","min":[-1.92693,-0.625,-0.0885386],"max":[-1.07307,-0.375,0.588539]},{"bufferView":19,"byteOffset":0,"componentType":5126,"count":84,"type":"VEC2"},{"bufferView":20,"byteOffset":0,"componentType":5123,"count":84,"type":"SCALAR"},{"bufferView":21,"byteOffset":0,"componentType":5126,"count":84,"type":"VEC3","min":[0.573073,-0.625,-0.838539],"max":[1.42693,-0.375,-0.161461]},{"bufferView":22,"byteOffset":0,"componentType":5126,"count":84,"type":"VEC2"},{"bufferView":23,"byteOffset":0,"componentType":5123,"count":84,"type":"SCALAR"},{"bufferView":24,"byteOffset":0,"componentType":5126,"count":84,"type":"VEC3","min":[0.573073,-0.625,-0.0885386],"max":[1.42693,-0.375,0.588539]},{"bufferView":25,"byteOffset":0,"componentType":5126,"count":84,"type":"VEC2"},{"bufferView":26,"byteOffset":0,"componentType":5123,"count":84,"type":"SCALAR"},{"bufferView":27,"byteOffset":0,"componentType":5126,"count":84,"type":"VEC3","min":[-1.92693,-0.625,-0.838539],"max":[-1.07307,-0.375,-0.161461]},{"bufferView":28,"byteOffset":0,"componentType":5126,"count":84,"type":"VEC2"},{"bufferView":29,"byteOffset":0,"componentType":5123,"count":84,"type":"SCALAR"}],
  "bufferViews": [{"buffer":0,"byteOffset":0,"byteLength":432,"target":34962},{"buffer":0,"byteOffset":432,"byteLength":288,"target":34962},{"buffer":0,"byteOffset":720,"byteLength":72,"target":34963},{"buffer":0,"byteOffset":792,"byteLength":432,"target":34962},{"buffer":0,"byteOffset":1224,"byteLength":288,"target":34962},{"buffer":0,"byteOffset":1512,"byteLength":72,"target":34963},{"buffer":0,"byteOffset":1584,"byteLength":432,"target":34962},{"buffer":0,"byteOffset":2016,"byteLength":288,"target":34962},{"buffer":0,"byteOffset":2304,"byteLength":72,"target":34963},{"buffer":0,"byteOffset":2376,"byteLength":432,"target":34962},{"buffer":0,"byteOffset":2808,"byteLength":288,"target":34962},{"buffer":0,"byteOffset":3096,"byteLength":72,"target":34963},{"buffer":0,"byteOffset":3168,"byteLength":432,"target":34962},{"buffer":0,"byteOffset":3600,"byteLength":288,"target":34962},{"buffer":0,"byteOffset":3888,"byteLength":72,"target":34963},{"buffer":0,"byteOffset":3960,"byteLength":432,"target":34962},{"buffer":0,"byteOffset":4392,"byteLength":288,"target":34962},{"buffer":0,"byteOffset":4680,"byteLength":72,"target":34963},{"buffer":0,"byteOffset":4752,"byteLength":1008,"target":34962},{"buffer":0,"byteOffset":5760,"byteLength":672,"target":34962},{"buffer":0,"byteOffset":6432,"byteLength":168,"target":34963},{"buffer":0,"byteOffset":6600,"byteLength":1008,"target":34962},{"buffer":0,"byteOffset":7608,"byteLength":672,"target":34962},{"buffer":0,"byteOffset":8280,"byteLength":168,"target":34963},{"buffer":0,"byteOffset":8448,"byteLength":1008,"target":34962},{"buffer":0,"byteOffset":9456,"byteLength":672,"target":34962},{"buffer":0,"byteOffset":10128,"byteLength":168,"target":34963},{"buffer":0,"byteOffset":10296,"byteLength":1008,"target":34962},{"buffer":0,"byteOffset":11304,"byteLength":672,"target":34962},{"buffer":0,"byteOffset":11976,"byteLength":168,"target":34963}],
  "buffers": [{ "uri": "unnamed_17.bin", "byteLength": 12144 }]
}